0
SECTION
2
ENTITIES
0
LINE
8
0
10
38.59489
20
-7.5765114
30
-223.71687
11
45.579227
21
-4.9539595
31
-212.38498
0
LINE
8
0
10
45.579227
20
-4.9539595
30
-212.38498
11
48.78947
21
-1.1683769
31
-198.43181
0
LINE
8
0
10
48.78947
20
-1.1683769
30
-198.43181
11
47.526398
21
3.1719599
31
-183.44344
0
LINE
8
0
10
47.526398
20
3.1719599
30
-183.44344
11
42.00282
21
7.3764634
31
-169.03088
0
LINE
8
0
10
42.00282
20
7.3764634
30
-169.03088
11
33.223057
21
10.869364
31
-156.42307
0
LINE
8
0
10
33.223057
20
10.869364
30
-156.42307
11
22.66549
21
13.322259
31
-146.22644
0
LINE
8
0
10
22.66549
20
13.322259
30
-146.22644
11
11.920248
21
14.689022
31
-138.4051
0
LINE
8
0
10
11.920248
20
14.689022
30
-138.4051
11
2.4162169
21
15.158047
31
-132.44412
0
LINE
8
0
10
2.4162169
20
15.158047
30
-132.44412
11
-4.702095
21
15.064204
31
-127.61027
0
LINE
8
0
10
-4.702095
20
15.064204
30
-127.61027
11
-8.56682
21
14.802412
31
-123.22693
0
LINE
8
0
10
-8.56682
20
14.802412
30
-123.22693
11
-8.518221
21
14.765638
31
-118.91217
0
LINE
8
0
10
-8.518221
20
14.765638
30
-118.91217
11
-4.05756
21
15.307701
31
-114.75739
0
LINE
8
0
10
-4.05756
20
15.307701
30
-114.75739
11
5.1145477
21
16.715836
31
-111.43207
0
LINE
8
0
10
5.1145477
20
16.715836
30
-111.43207
11
18.949766
21
19.174212
31
-110.186584
0
LINE
8
0
10
18.949766
20
19.174212
30
-110.186584
11
36.823124
21
22.707172
31
-112.70855
0
LINE
8
0
10
36.823124
20
22.707172
30
-112.70855
11
57.313908
21
27.108477
31
-120.79484
0
LINE
8
0
10
57.313908
20
27.108477
30
-120.79484
11
78.13106
21
31.884586
31
-135.85208
0
LINE
8
0
10
78.13106
20
31.884586
30
-135.85208
11
96.31329
21
36.255863
31
-158.33022
0
LINE
8
0
10
96.31329
20
36.255863
30
-158.33022
11
108.75116
21
39.254948
31
-187.28539
0
LINE
8
0
10
108.75116
20
39.254948
30
-187.28539
11
112.9292
21
39.92822
31
-220.29091
0
LINE
8
0
10
112.9292
20
39.92822
30
-220.29091
11
107.644135
21
37.59355
31
-253.82376
0
LINE
8
0
10
107.644135
20
37.59355
30
-253.82376
11
93.405594
21
32.062508
31
-284.06046
0
LINE
8
0
10
93.405594
20
32.062508
30
-284.06046
11
72.33209
21
23.731924
31
-307.81494
0
LINE
8
0
10
72.33209
20
23.731924
30
-307.81494
11
47.57025
21
13.498821
31
-323.27716
0
LINE
8
0
10
47.57025
20
13.498821
30
-323.27716
11
22.472164
21
2.530611
31
-330.2951
0
LINE
8
0
10
22.472164
20
2.530611
30
-330.2951
11
-0.15481186
21
-8.015566
31
-330.15854
0
LINE
8
0
10
-0.15481186
20
-8.015566
30
-330.15854
11
-18.489134
21
-17.219147
31
-325.04187
0
LINE
8
0
10
-18.489134
20
-17.219147
30
-325.04187
11
-31.760857
21
-24.502302
31
-317.35687
0
LINE
8
0
10
-31.760857
20
-24.502302
30
-317.35687
11
-40.029583
21
-29.609554
31
-309.2274
0
LINE
8
0
10
-40.029583
20
-29.609554
30
-309.2274
11
-43.83847
21
-32.50396
31
-302.18182
0
LINE
8
0
10
-43.83847
20
-32.50396
30
-302.18182
11
-43.891766
21
-33.2398
31
-297.0523
0
LINE
8
0
10
-43.891766
20
-33.2398
30
-297.0523
11
-40.845615
21
-31.86589
31
-294.0074
0
LINE
8
0
10
-40.845615
20
-31.86589
30
-294.0074
11
-35.236256
21
-28.392868
31
-292.64688
0
LINE
8
0
10
-35.236256
20
-28.392868
30
-292.64688
11
-27.5239
21
-22.835373
31
-292.12213
0
LINE
8
0
10
-27.5239
20
-22.835373
30
-292.12213
11
-18.20528
21
-15.317818
31
-291.28452
0
LINE
8
0
10
-18.20528
20
-15.317818
30
-291.28452
11
-7.9326763
21
-6.207262
31
-288.88785
0
LINE
8
0
10
-7.9326763
20
-6.207262
30
-288.88785
11
2.4235554
21
3.7844553
31
-283.8564
0
LINE
8
0
10
2.4235554
20
3.7844553
30
-283.8564
11
11.819962
21
13.597574
31
-275.58783
0
LINE
8
0
10
11.819962
20
13.597574
30
-275.58783
11
19.20657
21
21.968569
31
-264.20374
0
LINE
8
0
10
19.20657
20
21.968569
30
-264.20374
11
23.771381
21
27.711067
31
-250.63522
0
LINE
8
0
10
23.771381
20
27.711067
30
-250.63522
11
25.171556
21
30.050608
31
-236.4614
0
LINE
8
0
10
25.171556
20
30.050608
30
-236.4614
11
23.645681
21
28.877851
31
-223.51703
0
LINE
8
0
10
23.645681
20
28.877851
30
-223.51703
11
19.946222
21
24.800728
31
-213.398
0
LINE
8
0
10
19.946222
20
24.800728
30
-213.398
11
15.112722
21
18.960793
31
-207.05392
0
LINE
8
0
10
15.112722
20
18.960793
30
-207.05392
11
10.178668
21
12.688536
31
-204.61945
0
LINE
8
0
10
10.178668
20
12.688536
30
-204.61945
11
5.926434
21
7.1410437
31
-205.52249
0
LINE
8
0
10
5.926434
20
7.1410437
30
-205.52249
11
2.7664979
21
3.055078
31
-208.78406
0
LINE
8
0
10
2.7664979
20
3.055078
30
-208.78406
11
0.7504327
21
0.6751173
31
-213.3626
0
LINE
8
0
10
0.7504327
20
0.6751173
30
-213.3626
11
-0.3279377
21
-0.17040464
31
-218.41437
0
LINE
8
0
10
-0.3279377
20
-0.17040464
30
-218.41437
11
-0.8055664
21
0.079886675
31
-223.41061
0
LINE
8
0
10
-0.8055664
20
0.079886675
30
-223.41061
11
-1.0443046
21
0.8662114
31
-228.1206
0
LINE
8
0
10
-1.0443046
20
0.8662114
30
-228.1206
11
-1.3636112
21
1.6079462
31
-232.50894
0
LINE
8
0
10
-1.3636112
20
1.6079462
30
-232.50894
11
-2.005023
21
1.7555835
31
-236.59937
0
LINE
8
0
10
-2.005023
20
1.7555835
30
-236.59937
11
-3.1113734
21
0.8187971
31
-240.34447
0
LINE
8
0
10
-3.1113734
20
0.8187971
30
-240.34447
11
-4.706866
21
-1.5962327
31
-243.52875
0
LINE
8
0
10
-4.706866
20
-1.5962327
30
-243.52875
11
-6.6759944
21
-5.7165794
31
-245.72778
0
LINE
8
0
10
-6.6759944
20
-5.7165794
30
-245.72778
11
-8.753426
21
-11.500008
31
-246.34529
0
LINE
8
0
10
-8.753426
20
-11.500008
30
-246.34529
11
-10.545986
21
-18.532843
31
-244.74106
0
LINE
8
0
10
-10.545986
20
-18.532843
30
-244.74106
11
-11.604132
21
-25.98783
31
-240.43648
0
LINE
8
0
10
-11.604132
20
-25.98783
30
-240.43648
11
-11.540698
21
-32.70423
31
-233.34294
0
LINE
8
0
10
-11.540698
20
-32.70423
30
-233.34294
11
-10.164774
21
-37.41629
31
-223.92276
0
LINE
8
0
10
-10.164774
20
-37.41629
30
-223.92276
11
-7.575781
21
-39.083927
31
-213.19273
0
LINE
8
0
10
-7.575781
20
-39.083927
30
-213.19273
11
-4.166867
21
-37.212776
31
-202.53128
0
LINE
8
0
10
-4.166867
20
-37.212776
30
-202.53128
11
-0.523227
21
-32.02797
31
-193.34111
0
LINE
8
0
10
-0.523227
20
-32.02797
30
-193.34111
11
2.7488713
21
-24.419727
31
-186.68958
0
LINE
8
0
10
2.7488713
20
-24.419727
30
-186.68958
11
5.1909285
21
-15.681307
31
-183.069
0
LINE
8
0
10
5.1909285
20
-15.681307
30
-183.069
11
6.5929294
21
-7.1517415
31
-182.35638
0
LINE
8
0
10
6.5929294
20
-7.1517415
30
-182.35638
11
6.9980364
21
0.094594
31
-183.96094
0
LINE
8
0
10
6.9980364
20
0.094594
30
-183.96094
11
6.6297464
21
5.4160824
31
-187.0739
0
LINE
8
0
10
6.6297464
20
5.4160824
30
-187.0739
11
5.7865734
21
8.611506
31
-190.91692
0
LINE
8
0
10
5.7865734
20
8.611506
30
-190.91692
11
4.7484426
21
9.817868
31
-194.915
0
LINE
8
0
10
4.7484426
20
9.817868
30
-194.915
11
3.718176
21
9.375365
31
-198.77113
0
LINE
8
0
10
3.718176
20
9.375365
30
-198.77113
11
2.7993412
21
7.720501
31
-202.45653
0
LINE
8
0
10
2.7993412
20
7.720501
30
-202.45653
11
1.9989805
21
5.336646
31
-206.14252
0
LINE
8
0
10
1.9989805
20
5.336646
30
-206.14252
11
1.2421486
21
2.756717
31
-210.09605
0
LINE
8
0
10
1.2421486
20
2.756717
30
-210.09605
11
0.39214316
21
0.58748955
31
-214.54854
0
LINE
8
0
10
0.39214316
20
0.58748955
30
-214.54854
11
-0.72168726
21
-0.48840308
31
-219.54857
0
LINE
8
0
10
-0.72168726
20
-0.48840308
30
-219.54857
11
-2.2616775
21
0.22492492
31
-224.82222
0
LINE
8
0
10
-2.2616775
20
0.22492492
30
-224.82222
11
-4.3214207
21
3.2874272
31
-229.69019
0
LINE
8
0
10
-4.3214207
20
3.2874272
30
-229.69019
11
-6.854608
21
8.909422
31
-233.10318
0
LINE
8
0
10
-6.854608
20
8.909422
30
-233.10318
11
-9.616892
21
16.747704
31
-233.83957
0
LINE
8
0
10
-9.616892
20
16.747704
30
-233.83957
11
-12.155231
21
25.820469
31
-230.84657
0
LINE
8
0
10
-12.155231
20
25.820469
30
-230.84657
11
-13.871582
21
34.628258
31
-223.623
0
LINE
8
0
10
-13.871582
20
34.628258
30
-223.623
11
-14.16055
21
41.492123
31
-212.48459
0
LINE
8
0
10
-14.16055
20
41.492123
30
-212.48459
11
-12.57979
21
45.004753
31
-198.57422
0
LINE
8
0
10
-12.57979
20
45.004753
30
-198.57422
11
-8.988166
21
44.424313
31
-183.58502
0
LINE
8
0
10
-8.988166
20
44.424313
30
-183.58502
11
-3.59303
21
39.8559
31
-169.29321
0
LINE
8
0
10
-3.59303
20
39.8559
30
-169.29321
11
3.1094275
21
32.165062
31
-157.09117
0
LINE
8
0
10
3.1094275
20
32.165062
30
-157.09117
11
10.469664
21
22.690952
31
-147.6855
0
LINE
8
0
10
10.469664
20
22.690952
30
-147.6855
11
17.832924
21
12.89772
31
-141.04082
0
LINE
8
0
10
17.832924
20
12.89772
30
-141.04082
11
24.640234
21
4.0987177
31
-136.53664
0
LINE
8
0
10
24.640234
20
4.0987177
30
-136.53664
11
30.453674
21
-2.6816025
31
-133.23935
0
LINE
8
0
10
30.453674
20
-2.6816025
30
-133.23935
11
34.90804
21
-6.7131023
31
-130.19247
0
LINE
8
0
10
34.90804
20
-6.7131023
30
-130.19247
11
37.6222
21
-7.4961395
31
-126.66284
0
LINE
8
0
10
37.6222
20
-7.4961395
30
-126.66284
11
38.11242
21
-4.700506
31
-122.32691
0
LINE
8
0
10
38.11242
20
-4.700506
30
-122.32691
11
35.754604
21
1.8334293
31
-117.40004
0
LINE
8
0
10
35.754604
20
1.8334293
30
-117.40004
11
29.837519
21
12.006128
31
-112.70416
0
LINE
8
0
10
29.837519
20
12.006128
30
-112.70416
11
19.733143
21
25.301626
31
-109.64363
0
LINE
8
0
10
19.733143
20
25.301626
30
-109.64363
11
5.174099
21
40.62878
31
-110.039375
0
LINE
8
0
10
5.174099
20
40.62878
30
-110.039375
11
-13.424009
21
56.259277
31
-115.78518
0
LINE
8
0
10
-13.424009
20
56.259277
30
-115.78518
11
-34.724148
21
69.96832
31
-128.34857
0
LINE
8
0
10
-34.724148
20
69.96832
30
-128.34857
11
-56.457245
21
79.41438
31
-148.23312
0
LINE
8
0
10
-56.457245
20
79.41438
30
-148.23312
11
-75.74361
21
82.69426
31
-174.5965
0
LINE
8
0
10
-75.74361
20
82.69426
30
-174.5965
11
-89.71637
21
78.890594
31
-205.22162
0
LINE
8
0
10
-89.71637
20
78.890594
30
-205.22162
11
-96.258545
21
68.38745
31
-236.9184
0
LINE
8
0
10
-96.258545
20
68.38745
30
-236.9184
11
-94.58307
21
52.800526
31
-266.2702
0
LINE
8
0
10
-94.58307
20
52.800526
30
-266.2702
11
-85.41759
21
34.53667
31
-290.44748
0
LINE
8
0
10
-85.41759
20
34.53667
30
-290.44748
11
-70.73741
21
16.154305
31
-307.81232
0
LINE
8
0
10
-70.73741
20
16.154305
30
-307.81232
11
-53.17657
21
-0.22729683
31
-318.11505
0
LINE
8
0
10
-53.17657
20
-0.22729683
30
-318.11505
11
-35.371414
21
-13.275726
31
-322.28006
0
LINE
8
0
10
-35.371414
20
-13.275726
30
-322.28006
11
-19.461079
21
-22.497639
31
-321.9358
0
LINE
8
0
10
-19.461079
20
-22.497639
30
-321.9358
11
-6.8603315
21
-28.05991
31
-318.88788
0
LINE
8
0
10
-6.8603315
20
-28.05991
30
-318.88788
11
1.7176781
21
-30.510523
31
-314.69553
0
LINE
8
0
10
1.7176781
20
-30.510523
30
-314.69553
11
6.0938835
21
-30.51762
31
-310.41727
0
LINE
8
0
10
6.0938835
20
-30.51762
30
-310.41727
11
6.4286957
21
-28.694569
31
-306.52045
0
LINE
8
0
10
6.4286957
20
-28.694569
30
-306.52045
11
3.0917206
21
-25.527534
31
-302.90765
0
LINE
8
0
10
3.0917206
20
-25.527534
30
-302.90765
11
-3.3745089
21
-21.384373
31
-299.0259
0
LINE
8
0
10
-3.3745089
20
-21.384373
30
-299.0259
11
-12.209969
21
-16.5711
31
-294.04114
0
LINE
8
0
10
-12.209969
20
-16.5711
30
-294.04114
11
-22.369349
21
-11.397528
31
-287.0752
0
LINE
8
0
10
-22.369349
20
-11.397528
30
-287.0752
11
-32.507473
21
-6.2201166
31
-277.4909
0
LINE
8
0
10
-32.507473
20
-6.2201166
30
-277.4909
11
-41.089092
21
-1.4396076
31
-265.17242
0
LINE
8
0
10
-41.089092
20
-1.4396076
30
-265.17242
11
-46.645813
21
2.5495915
31
-250.71143
0
LINE
8
0
10
-46.645813
20
2.5495915
30
-250.71143
11
-48.131752
21
5.4417496
31
-235.39757
0
LINE
8
0
10
-48.131752
20
5.4417496
30
-235.39757
11
-45.249386
21
7.0970335
31
-220.96585
0
LINE
8
0
10
-45.249386
20
7.0970335
30
-220.96585
11
-38.59488
21
7.5765
31
-209.15233
0
LINE
8
0
10
-38.59488
20
7.5765
30
-209.15233
11
-29.529358
21
7.1150618
31
-201.2159
0
LINE
8
0
10
-29.529358
20
7.1150618
30
-201.2159
11
-19.803406
21
6.0430226
31
-197.6119
0
LINE
8
0
10
-19.803406
20
6.0430226
30
-197.6119
11
-11.076862
21
4.689908
31
-197.94472
0
LINE
8
0
10
-11.076862
20
4.689908
30
-197.94472
11
-4.5244575
21
3.3087287
31
-201.19612
0
LINE
8
0
10
-4.5244575
20
3.3087287
30
-201.19612
11
-0.65258956
21
2.0423946
31
-206.10475
0
LINE
8
0
10
-0.65258956
20
2.0423946
30
-206.10475
11
0.6510726
21
0.9316755
31
-211.53398
0
LINE
8
0
10
0.6510726
20
0.9316755
30
-211.53398
11
-0.08229078
21
-0.05231951
31
-216.70753
0
LINE
8
0
10
-0.08229078
20
-0.05231951
30
-216.70753
11
-2.1381845
21
-0.96984655
31
-221.27693
0
LINE
8
0
10
-2.1381845
20
-0.96984655
30
-221.27693
11
-4.798338
21
-1.8798907
31
-225.25479
0
LINE
8
0
10
-4.798338
20
-1.8798907
30
-225.25479
11
-7.4281635
21
-2.8156695
31
-228.87903
0
LINE
8
0
10
-7.4281635
20
-2.8156695
30
-228.87903
11
-9.486185
21
-3.7653863
31
-232.46198
0
LINE
8
0
10
-9.486185
20
-3.7653863
30
-232.46198
11
-10.495047
21
-4.655392
31
-236.25206
0
LINE
8
0
10
-10.495047
20
-4.655392
30
-236.25206
11
-10.022051
21
-5.338872
31
-240.32047
0
LINE
8
0
10
-10.022051
20
-5.338872
30
-240.32047
11
-7.703509
21
-5.5980844
31
-244.4765
0
LINE
8
0
10
-7.703509
20
-5.5980844
30
-244.4765
11
-3.328226
21
-5.173225
31
-248.23123
0
LINE
8
0
10
-3.328226
20
-5.173225
30
-248.23123
11
3.037323
21
-3.8260772
31
-250.83582
0
LINE
8
0
10
3.037323
20
-3.8260772
30
-250.83582
11
10.93222
21
-1.4330468
31
-251.4201
0
LINE
8
0
10
10.93222
20
-1.4330468
30
-251.4201
11
19.46459
21
1.9195457
31
-249.22589
0
LINE
8
0
10
19.46459
20
1.9195457
30
-249.22589
11
27.417034
21
5.8827324
31
-243.87973
0
LINE
8
0
10
27.417034
20
5.8827324
30
-243.87973
11
33.50188
21
9.876854
31
-235.60406
0
LINE
8
0
10
33.50188
20
9.876854
30
-235.60406
11
36.69845
21
13.219816
31
-225.26381
0
LINE
8
0
10
36.69845
20
13.219816
30
-225.26381
11
36.547657
21
15.316912
31
-214.19589
0
LINE
8
0
10
36.547657
20
15.316912
30
-214.19589
11
33.276993
21
15.836573
31
-203.87398
0
LINE
8
0
10
33.276993
20
15.836573
30
-203.87398
11
27.706257
21
14.799972
31
-195.53204
0
LINE
8
0
10
27.706257
20
14.799972
30
-195.53204
11
20.980574
21
12.550145
31
-189.89406
0
LINE
8
0
10
20.980574
20
12.550145
30
-189.89406
11
14.248911
21
9.6246605
31
-187.09598
0
LINE
8
0
10
14.248911
20
9.6246605
30
-187.09598
11
8.408212
21
6.593193
31
-186.79436
0
LINE
8
0
10
8.408212
20
6.593193
30
-186.79436
11
3.980137
21
3.9232664
31
-188.3838
0
LINE
8
0
10
3.980137
20
3.9232664
30
-188.3838
11
1.1161256
21
1.9082706
31
-191.2242
0
LINE
8
0
10
1.1161256
20
1.9082706
30
-191.2242
11
-0.32090807
21
0.6551633
31
-194.8059
0
LINE
8
0
10
-0.32090807
20
0.6551633
30
-194.8059
11
-0.65530086
21
0.10867357
31
-198.8224
0
LINE
8
0
10
-0.65530086
20
0.10867357
30
-198.8224
11
-0.31949925
21
0.08260274
31
-203.15778
0
LINE
8
0
10
-0.31949925
20
0.08260274
30
-203.15778
11
0.19469512
21
0.2829343
31
-207.80705
0
LINE
8
0
10
0.19469512
20
0.2829343
30
-207.80705
11
0.3693055
21
0.3236898
31
-212.75568
0
LINE
8
0
10
0.3693055
20
0.3236898
30
-212.75568
11
-0.29423663
21
-0.24703519
31
-217.84293
0
LINE
8
0
10
-0.29423663
20
-0.24703519
30
-217.84293
11
-2.1933703
21
-1.8867407
31
-222.64359
0
LINE
8
0
10
-2.1933703
20
-1.8867407
30
-222.64359
11
-5.5042353
21
-4.9479275
31
-226.4191
0
LINE
8
0
10
-5.5042353
20
-4.9479275
30
-226.4191
11
-10.053862
21
-9.526479
31
-228.1858
0
LINE
8
0
10
-10.053862
20
-9.526479
30
-228.1858
11
-15.246577
21
-15.3151245
31
-226.92778
0
LINE
8
0
10
-15.246577
20
-15.3151245
30
-226.92778
11
-20.112259
21
-21.536768
31
-221.91838
0
LINE
8
0
10
-20.112259
20
-21.536768
30
-221.91838
11
-23.507402
21
-27.027771
31
-213.04375
0
LINE
8
0
10
-23.507402
20
-27.027771
30
-213.04375
11
-24.426313
21
-30.486866
31
-200.98212
0
LINE
8
0
10
-24.426313
20
-30.486866
30
-200.98212
11
-22.311342
21
-30.824476
31
-187.12872
0
LINE
8
0
10
-22.311342
20
-30.824476
30
-187.12872
11
-17.232327
21
-27.483131
31
-173.2614
0
LINE
8
0
10
-17.232327
20
-27.483131
30
-173.2614
11
-9.857396
21
-20.598276
31
-161.06322
0
LINE
8
0
10
-9.857396
20
-20.598276
30
-161.06322
11
-1.2355051
21
-10.940133
31
-151.68845
0
LINE
8
0
10
-1.2355051
20
-10.940133
30
-151.68845
11
7.5090294
21
0.32348442
31
-145.52191
0
LINE
8
0
10
7.5090294
20
0.32348442
30
-145.52191
11
15.442111
21
11.926661
31
-142.18922
0
LINE
8
0
10
15.442111
20
11.926661
30
-142.18922
11
21.963497
21
22.747128
31
-140.76117
0
LINE
8
0
10
21.963497
20
22.747128
30
-140.76117
11
26.81311
21
31.917782
31
-140.04561
0
LINE
8
0
10
26.81311
20
31.917782
30
-140.04561
11
29.979525
21
38.802364
31
-138.86957
0
LINE
8
0
10
29.979525
20
38.802364
30
-138.86957
11
31.571531
21
42.88174
31
-136.30257
0
LINE
8
0
10
31.571531
20
42.88174
30
-136.30257
11
31.707825
21
43.62596
31
-131.82059
0
LINE
8
0
10
31.707825
20
43.62596
30
-131.82059
11
30.45377
21
40.418877
31
-125.43471
0
LINE
8
0
10
30.45377
20
40.418877
30
-125.43471
11
27.81678
21
32.59517
31
-117.79389
0
LINE
8
0
10
27.81678
20
32.59517
30
-117.79389
11
23.792852
21
19.618864
31
-110.23827
0
LINE
8
0
10
23.792852
20
19.618864
30
-110.23827
11
18.443007
21
1.3837433
31
-104.73611
0
LINE
8
0
10
18.443007
20
1.3837433
30
-104.73611
11
11.972618
21
-21.430786
31
-103.63566
0
LINE
8
0
10
11.972618
20
-21.430786
30
-103.63566
11
4.773346
21
-47.105446
31
-109.190506
0
LINE
8
0
10
4.773346
20
-47.105446
30
-109.190506
11
-2.5975094
21
-72.884476
31
-122.930435
0
LINE
8
0
10
-2.5975094
20
-72.884476
30
-122.930435
11
-9.509042
21
-95.35748
31
-145.0614
0
LINE
8
0
10
-9.509042
20
-95.35748
30
-145.0614
11
-15.391816
21
-111.17915
31
-174.14221
0
LINE
8
0
10
-15.391816
20
-111.17915
30
-174.14221
11
-19.869673
21
-117.92827
31
-207.24326
0
LINE
8
0
10
-19.869673
20
-117.92827
30
-207.24326
11
-22.831848
21
-114.77316
31
-240.58878
0
LINE
8
0
10
-22.831848
20
-114.77316
30
-240.58878
11
-24.423777
21
-102.683334
31
-270.48584
0
LINE
8
0
10
-24.423777
20
-102.683334
30
-270.48584
11
-24.967144
21
-84.10153
31
-294.19434
0
LINE
8
0
10
-24.967144
20
-84.10153
30
-294.19434
11
-24.849321
21
-62.23396
31
-310.4328
0
LINE
8
0
10
-24.849321
20
-62.23396
30
-310.4328
11
-24.4258
21
-40.256115
31
-319.39783
0
LINE
8
0
10
-24.4258
20
-40.256115
30
-319.39783
11
-23.95999
21
-20.704859
31
-322.3869
0
LINE
8
0
10
-23.95999
20
-20.704859
30
-322.3869
11
-23.601439
21
-5.206234
31
-321.2299
0
LINE
8
0
10
-23.601439
20
-5.206234
30
-321.2299
11
-23.388168
21
5.4890194
31
-317.75073
0
LINE
8
0
10
-23.388168
20
5.4890194
30
-317.75073
11
-23.25669
21
11.284292
31
-313.38785
0
LINE
8
0
10
-23.25669
20
11.284292
30
-313.38785
11
-23.051056
21
12.479038
31
-309.00708
0
LINE
8
0
10
-23.051056
20
12.479038
30
-309.00708
11
-22.532913
21
9.580812
31
-304.87207
0
LINE
8
0
10
-22.532913
20
9.580812
30
-304.87207
11
-21.403275
21
3.2319632
31
-300.72232
0
LINE
8
0
10
-21.403275
20
3.2319632
30
-300.72232
11
-19.349384
21
-5.7623186
31
-295.9248
0
LINE
8
0
10
-19.349384
20
-5.7623186
30
-295.9248
11
-16.124294
21
-16.359627
31
-289.68375
0
LINE
8
0
10
-16.124294
20
-16.359627
30
-289.68375
11
-11.651511
21
-27.238907
31
-281.29895
0
LINE
8
0
10
-11.651511
20
-27.238907
30
-281.29895
11
-6.12308
21
-36.872726
31
-270.43616
0
LINE
8
0
10
-6.12308
20
-36.872726
30
-270.43616
11
-0.045376778
21
-43.745083
31
-257.34662
0
LINE
8
0
10
-0.045376778
20
-43.745083
30
-257.34662
11
5.8167214
21
-46.68854
31
-242.9402
0
LINE
8
0
10
5.8167214
20
-46.68854
30
-242.9402
11
10.607227
21
-45.221783
31
-228.65163
0
LINE
8
0
10
10.607227
20
-45.221783
30
-228.65163
11
13.617771
21
-39.74059
31
-216.10565
0
LINE
8
0
10
13.617771
20
-39.74059
30
-216.10565
11
14.507275
21
-31.4493
31
-206.68443
0
LINE
8
0
10
14.507275
20
-31.4493
30
-206.68443
11
13.406842
21
-22.030962
31
-201.16043
0
LINE
8
0
10
13.406842
20
-22.030962
30
-201.16043
11
10.861154
21
-13.178371
31
-199.53844
0
LINE
8
0
10
10.861154
20
-13.178371
30
-199.53844
11
7.6372805
21
-6.1750164
31
-201.15501
0
LINE
8
0
10
7.6372805
20
-6.1750164
30
-201.15501
11
4.486561
21
-1.6643279
31
-204.96423
0
LINE
8
0
10
4.486561
20
-1.6643279
30
-204.96423
11
1.9557515
21
0.34316272
31
-209.87888
0
LINE
8
0
10
1.9557515
20
0.34316272
30
-209.87888
11
0.30113426
21
0.29197884
31
-215.03651
0
LINE
8
0
10
0.30113426
20
0.29197884
30
-215.03651
11
-0.4971551
21
-1.1544347
31
-219.92685
0
LINE
8
0
10
-0.4971551
20
-1.1544347
30
-219.92685
11
-0.66058636
21
-3.3101335
31
-224.38202
0
LINE
8
0
10
-0.66058636
20
-3.3101335
30
-224.38202
11
-0.5258622
21
-5.5753374
31
-228.47717
0
LINE
8
0
10
-0.5258622
20
-5.5753374
30
-228.47717
11
-0.47657418
21
-7.4629602
31
-232.39417
0
LINE
8
0
10
-0.47657418
20
-7.4629602
30
-232.39417
11
-0.89827967
21
-8.576635
31
-236.28334
0
LINE
8
0
10
-0.89827967
20
-8.576635
30
-236.28334
11
-2.1434667
21
-8.583364
31
-240.14502
0
LINE
8
0
10
-2.1434667
20
-8.583364
30
-240.14502
11
-4.4867373
21
-7.214329
31
-243.74593
0
LINE
8
0
10
-4.4867373
20
-7.214329
30
-243.74593
11
-8.0567045
21
-4.309352
31
-246.58806
0
LINE
8
0
10
-8.0567045
20
-4.309352
30
-246.58806
11
-12.751827
21
0.10342932
31
-247.95926
0
LINE
8
0
10
-12.751827
20
0.10342932
30
-247.95926
11
-18.167974
21
5.724408
31
-247.08174
0
LINE
8
0
10
-18.167974
20
5.724408
30
-247.08174
11
-23.589209
21
11.949598
31
-243.3483
0
LINE
8
0
10
-23.589209
20
11.949598
30
-243.3483
11
-28.080183
21
17.929813
31
-236.58284
0
LINE
8
0
10
-28.080183
20
17.929813
30
-236.58284
11
-30.690763
21
22.73769
31
-227.22464
0
LINE
8
0
10
-30.690763
20
22.73769
30
-227.22464
11
-30.723118
21
25.604158
31
-216.32977
0
LINE
8
0
10
-30.723118
20
25.604158
30
-216.32977
11
-27.959517
21
26.133228
31
-205.35693
0
LINE
8
0
10
-27.959517
20
26.133228
30
-205.35693
11
-22.754787
21
24.40962
31
-195.79666
0
LINE
8
0
10
-22.754787
20
24.40962
30
-195.79666
11
-15.944483
21
20.951817
31
-188.78288
0
LINE
8
0
10
-15.944483
20
20.951817
30
-188.78288
11
-8.607658
21
16.535213
31
-184.84277
0
LINE
8
0
10
-8.607658
20
16.535213
30
-184.84277
11
-1.7844248
21
11.965973
31
-183.86258
0
LINE
8
0
10
-1.7844248
20
11.965973
30
-183.86258
11
3.746543
21
7.8911123
31
-185.24873
0
LINE
8
0
10
3.746543
20
7.8911123
30
-185.24873
11
7.5653687
21
4.700177
31
-188.19098
0
LINE
8
0
10
7.5653687
20
4.700177
30
-188.19098
11
9.588298
21
2.5203156
31
-191.91548
0
LINE
8
0
10
9.588298
20
2.5203156
30
-191.91548
11
9.974276
21
1.271687
31
-195.85683
0
LINE
8
0
10
9.974276
20
1.271687
30
-195.85683
11
9.020853
21
0.7421181
31
-199.72794
0
LINE
8
0
10
9.020853
20
0.7421181
30
-199.72794
11
7.095062
21
0.6513201
31
-203.50381
0
LINE
8
0
10
7.095062
20
0.6513201
30
-203.50381
11
4.6159945
21
0.6950836
31
-207.34816
0
LINE
8
0
10
4.6159945
20
0.6950836
30
-207.34816
11
2.0777912
21
0.57740045
31
-211.50409
0
LINE
8
0
10
2.0777912
20
0.57740045
30
-211.50409
11
0.0812339
21
0.045507867
31
-216.1602
0
LINE
8
0
10
0.0812339
20
0.045507867
30
-216.1602
11
-0.6709411
21
-1.060855
31
-221.30627
0
LINE
8
0
10
-0.6709411
20
-1.060855
30
-221.30627
11
0.5439007
21
-2.748664
31
-226.60574
0
LINE
8
0
10
0.5439007
20
-2.748664
30
-226.60574
11
4.291862
21
-4.8205237
31
-231.33342
0
LINE
8
0
10
4.291862
20
-4.8205237
30
-231.33342
11
10.7417345
21
-6.868127
31
-234.43503
0
LINE
8
0
10
10.7417345
20
-6.868127
30
-234.43503
11
19.449623
21
-8.341795
31
-234.74074
0
LINE
8
0
10
19.449623
20
-8.341795
30
-234.74074
11
29.286152
21
-8.696976
31
-231.29768
0
LINE
8
0
10
29.286152
20
-8.696976
30
-231.29768
11
38.59489
21
-7.5765038
31
-223.71687
0
LINE
8
0
10
38.59489
20
-7.5765038
30
-223.71687
11
38.59489
21
-7.5765114
31
-223.71687
0
ENDSEC
0
EOF
