0
SECTION
2
ENTITIES
0
LINE
8
0
10
99.18492
20
34.18089
30
-285.0353
11
68.53053
21
7.027096
31
-255.28229
0
LINE
8
0
10
68.53053
20
7.027096
30
-255.28229
11
32.225395
21
14.329876
31
-289.74747
0
LINE
8
0
10
32.225395
20
14.329876
30
-289.74747
11
64.201035
21
45.335724
31
-313.73856
0
LINE
8
0
10
64.201035
20
45.335724
30
-313.73856
11
95.77057
21
39.47773
31
-274.60168
0
LINE
8
0
10
95.77057
20
39.47773
30
-274.60168
11
60.37862
21
10.253889
31
-253.26596
0
LINE
8
0
10
60.37862
20
10.253889
30
-253.26596
11
31.019882
21
20.446484
31
-293.1824
0
LINE
8
0
10
31.019882
20
20.446484
30
-293.1824
11
66.49162
21
53.247093
31
-308.1972
0
LINE
8
0
10
66.49162
20
53.247093
30
-308.1972
11
90.495804
21
43.83911
31
-264.62833
0
LINE
8
0
10
90.495804
20
43.83911
30
-264.62833
11
52.241417
21
12.891519
31
-252.78609
0
LINE
8
0
10
52.241417
20
12.891519
30
-252.78609
11
30.305395
21
26.970947
31
-296.14127
0
LINE
8
0
10
30.305395
20
26.970947
30
-296.14127
11
67.36891
21
61.015213
31
-301.34647
0
LINE
8
0
10
67.36891
20
61.015213
30
-301.34647
11
83.608444
21
47.07909
31
-255.4635
0
LINE
8
0
10
83.608444
20
47.07909
30
-255.4635
11
44.42095
21
15.105767
31
-253.72957
0
LINE
8
0
10
44.42095
20
15.105767
30
-253.72957
11
29.863892
21
33.951675
31
-298.36118
0
LINE
8
0
10
29.863892
20
33.951675
30
-298.36118
11
66.63591
21
68.35106
31
-293.4002
0
LINE
8
0
10
66.63591
20
68.35106
30
-293.4002
11
75.42952
21
49.08097
31
-247.4149
0
LINE
8
0
10
75.42952
20
49.08097
30
-247.4149
11
37.149147
21
17.098793
31
-255.9177
0
LINE
8
0
10
37.149147
20
17.098793
30
-255.9177
11
29.426947
21
41.36945
31
-299.62518
0
LINE
8
0
10
29.426947
20
41.36945
30
-299.62518
11
64.18553
21
74.94684
31
-284.62943
0
LINE
8
0
10
64.18553
20
74.94684
30
-284.62943
11
66.330414
21
49.80722
31
-240.73502
0
LINE
8
0
10
66.330414
20
49.80722
30
-240.73502
11
30.573338
21
19.088516
31
-259.11877
0
LINE
8
0
10
30.573338
20
19.088516
30
-259.11877
11
28.700026
21
49.132183
31
-299.775
0
LINE
8
0
10
28.700026
20
49.132183
30
-299.775
11
60.010544
21
80.498505
31
-275.34796
0
LINE
8
0
10
60.010544
20
80.498505
30
-275.34796
11
56.706566
21
49.302788
31
-235.6097
0
LINE
8
0
10
56.706566
20
49.302788
30
-235.6097
11
24.749357
21
21.286732
31
-263.0632
0
LINE
8
0
10
24.749357
20
21.286732
30
-263.0632
11
27.388388
21
57.074825
31
-298.71912
0
LINE
8
0
10
27.388388
20
57.074825
30
-298.71912
11
54.20586
21
84.72857
31
-265.89532
0
LINE
8
0
10
54.20586
20
84.72857
30
-265.89532
11
46.949722
21
47.692238
31
-232.15114
0
LINE
8
0
10
46.949722
20
47.692238
30
-232.15114
11
19.642092
21
23.877302
31
-267.46024
0
LINE
8
0
10
19.642092
20
23.877302
30
-267.46024
11
25.223513
21
64.966225
31
-296.43762
0
LINE
8
0
10
25.223513
20
64.966225
30
-296.43762
11
46.963337
21
87.40816
31
-256.6194
0
LINE
8
0
10
46.963337
20
87.40816
30
-256.6194
11
37.421616
21
45.171135
31
-230.39516
0
LINE
8
0
10
37.421616
20
45.171135
30
-230.39516
11
15.132992
21
26.996347
31
-272.0159
0
LINE
8
0
10
15.132992
20
26.996347
30
-272.0159
11
21.988117
21
72.522964
31
-292.9818
0
LINE
8
0
10
21.988117
20
72.522964
30
-292.9818
11
38.559795
21
88.375565
31
-247.85701
0
LINE
8
0
10
38.559795
20
88.375565
30
-247.85701
11
28.429497
21
41.990547
31
-230.30293
0
LINE
8
0
10
28.429497
20
41.990547
30
-230.30293
11
11.03451
21
30.71611
31
-276.45016
0
LINE
8
0
10
11.03451
20
30.71611
30
-276.45016
11
17.536072
21
79.42544
31
-288.46997
0
LINE
8
0
10
17.536072
20
79.42544
30
-288.46997
11
29.338118
21
87.55085
31
-239.91823
0
LINE
8
0
10
29.338118
20
87.55085
30
-239.91823
11
20.206734
21
38.4377
31
-231.76743
0
LINE
8
0
10
20.206734
20
38.4377
30
-231.76743
11
7.110032
21
35.03364
31
-280.51233
0
LINE
8
0
10
7.110032
20
35.03364
30
-280.51233
11
11.808372
21
85.34115
31
-283.07834
0
LINE
8
0
10
11.808372
20
85.34115
30
-283.07834
11
19.683975
21
84.94469
31
-233.07095
0
LINE
8
0
10
19.683975
20
84.94469
30
-233.07095
11
12.899903
21
34.814495
31
-234.62268
0
LINE
8
0
10
12.899903
20
34.814495
30
-234.62268
11
3.097732
21
39.86528
31
-283.9939
0
LINE
8
0
10
3.097732
20
39.86528
30
-283.9939
11
4.8413477
21
89.94722
31
-277.02982
0
LINE
8
0
10
4.8413477
20
89.94722
30
-277.02982
11
9.999414
21
80.66069
31
-227.52911
0
LINE
8
0
10
9.999414
20
80.66069
30
-227.52911
11
6.5618925
21
31.412563
31
-238.65712
0
LINE
8
0
10
6.5618925
20
31.412563
30
-238.65712
11
-1.2635889
21
45.048435
31
-286.73917
0
LINE
8
0
10
-1.2635889
20
45.048435
30
-286.73917
11
-3.2318814
21
92.95502
31
-270.5794
0
LINE
8
0
10
-3.2318814
20
92.95502
30
-270.5794
11
0.6752689
21
74.89074
31
-223.44427
0
LINE
8
0
10
0.6752689
20
74.89074
30
-223.44427
11
1.1531923
21
28.490314
31
-243.62842
0
LINE
8
0
10
1.1531923
20
28.490314
30
-243.62842
11
-6.208638
21
50.349747
31
-288.65054
0
LINE
8
0
10
-6.208638
20
50.349747
30
-288.65054
11
-12.187569
21
94.1327
31
-263.99847
0
LINE
8
0
10
-12.187569
20
94.1327
30
-263.99847
11
-7.9353285
21
67.90443
31
-220.90189
0
LINE
8
0
10
-7.9353285
20
67.90443
30
-220.90189
11
-3.4497275
21
26.252115
31
-249.27821
0
LINE
8
0
10
-3.4497275
20
26.252115
30
-249.27821
11
-11.921687
21
55.477806
31
-289.69
0
LINE
8
0
10
-11.921687
20
55.477806
30
-289.69
11
-21.72458
21
93.32426
31
-257.55984
0
LINE
8
0
10
-21.72458
20
93.32426
30
-257.55984
11
-15.540466
21
60.032257
31
-219.92139
0
LINE
8
0
10
-15.540466
20
60.032257
30
-219.92139
11
-7.4395604
21
24.83033
31
-255.34888
0
LINE
8
0
10
-7.4395604
20
24.83033
30
-255.34888
11
-18.516842
21
60.103325
31
-289.87714
0
LINE
8
0
10
-18.516842
20
60.103325
30
-289.87714
11
-31.483658
21
90.46483
31
-251.52023
0
LINE
8
0
10
-31.483658
20
90.46483
30
-251.52023
11
-21.928104
21
51.644135
31
-220.46016
0
LINE
8
0
10
-21.928104
20
51.644135
30
-220.46016
11
-11.057718
21
24.273916
31
-261.5983
0
LINE
8
0
10
-11.057718
20
24.273916
30
-261.5983
11
-26.02326
21
63.880478
31
-289.2832
0
LINE
8
0
10
-26.02326
20
63.880478
30
-289.2832
11
-41.07128
21
85.58859
31
-246.10927
0
LINE
8
0
10
-41.07128
20
85.58859
30
-246.10927
11
-26.978924
21
43.12597
31
-222.42108
0
LINE
8
0
10
-26.978924
20
43.12597
30
-222.42108
11
-14.570195
21
24.54258
31
-267.80957
0
LINE
8
0
10
-14.570195
20
24.54258
30
-267.80957
11
-34.37828
21
66.47439
31
-288.022
0
LINE
8
0
10
-34.37828
20
66.47439
30
-288.022
11
-50.08639
21
78.83102
31
-241.51743
0
LINE
8
0
10
-50.08639
20
78.83102
30
-241.51743
11
-30.671299
21
34.852314
31
-225.66292
0
LINE
8
0
10
-30.671299
20
34.852314
30
-225.66292
11
-18.241514
21
25.50777
31
-273.80273
0
LINE
8
0
10
-18.241514
20
25.50777
30
-273.80273
11
-43.426243
21
67.583855
31
-286.2386
0
LINE
8
0
10
-43.426243
20
67.583855
30
-286.2386
11
-58.147896
21
70.42369
31
-237.88847
0
LINE
8
0
10
-58.147896
20
70.42369
30
-237.88847
11
-33.079536
21
27.162235
31
-230.01257
0
LINE
8
0
10
-33.079536
20
27.162235
30
-230.01257
11
-22.309042
21
26.961151
31
-279.4404
0
LINE
8
0
10
-22.309042
20
26.961151
30
-279.4404
11
-52.925987
21
66.96627
31
-284.0966
0
LINE
8
0
10
-52.925987
20
66.96627
30
-284.0966
11
-64.92105
21
60.682888
31
-235.31639
0
LINE
8
0
10
-64.92105
20
60.682888
30
-235.31639
11
-34.364407
21
20.336193
31
-235.27815
0
LINE
8
0
10
-34.364407
20
20.336193
30
-235.27815
11
-26.959276
21
28.628328
31
-284.629
0
LINE
8
0
10
-26.959276
20
28.628328
30
-284.629
11
-62.564934
21
64.45773
31
-281.76492
0
LINE
8
0
10
-62.564934
20
64.45773
30
-281.76492
11
-70.14003
21
49.99075
31
-233.8434
0
LINE
8
0
10
-70.14003
20
49.99075
30
-233.8434
11
-34.757404
21
14.577424
31
-241.26183
0
LINE
8
0
10
-34.757404
20
14.577424
30
-241.26183
11
-32.307957
21
30.187977
31
-289.31775
0
LINE
8
0
10
-32.307957
20
30.187977
30
-289.31775
11
-71.978516
21
59.98794
31
-279.4062
0
LINE
8
0
10
-71.978516
20
59.98794
30
-279.4062
11
-73.627045
21
38.77476
31
-233.46541
0
LINE
8
0
10
-73.627045
20
38.77476
30
-233.46541
11
-34.53901
21
9.998378
31
-247.77234
0
LINE
8
0
10
-34.53901
20
9.998378
30
-247.77234
11
-38.387306
21
31.297186
31
-293.4958
0
LINE
8
0
10
-38.387306
20
31.297186
30
-293.4958
11
-80.77475
21
53.58998
31
-277.1657
0
LINE
8
0
10
-80.77475
20
53.58998
30
-277.1657
11
-75.30209
21
27.478767
31
-234.13535
0
LINE
8
0
10
-75.30209
20
27.478767
30
-234.13535
11
-34.01381
21
6.6145
31
-254.6355
0
LINE
8
0
10
-34.01381
20
6.6145
30
-254.6355
11
-45.137104
21
31.614656
31
-297.1828
0
LINE
8
0
10
-45.137104
20
31.614656
30
-297.1828
11
-88.562164
21
45.40226
31
-275.16168
0
LINE
8
0
10
-88.562164
20
45.40226
30
-275.16168
11
-75.18964
21
16.53919
31
-235.7744
0
LINE
8
0
10
-75.18964
20
16.53919
30
-235.7744
11
-33.48578
21
4.3441725
31
-261.69797
0
LINE
8
0
10
-33.48578
20
4.3441725
30
-261.69797
11
-52.407394
21
30.829529
31
-300.42218
0
LINE
8
0
10
-52.407394
20
30.829529
30
-300.42218
11
-94.97539
21
35.66374
31
-273.48245
0
LINE
8
0
10
-94.97539
20
35.66374
30
-273.48245
11
-73.4133
21
6.3556347
31
-238.2802
0
LINE
8
0
10
-73.4133
20
6.3556347
30
-238.2802
11
-33.22873
21
3.0163112
31
-268.83786
0
LINE
8
0
10
-33.22873
20
3.0163112
30
-268.83786
11
-59.963215
21
28.683475
31
-303.26947
0
LINE
8
0
10
-59.963215
20
28.683475
30
-303.26947
11
-99.70322
21
24.70154
31
-272.18073
0
LINE
8
0
10
-99.70322
20
24.70154
30
-272.18073
11
-70.18605
21
-2.7320538
31
-241.53842
0
LINE
8
0
10
-70.18605
20
-2.7320538
30
-241.53842
11
-33.465164
21
2.3837028
31
-275.9604
0
LINE
8
0
10
-33.465164
20
2.3837028
30
-275.9604
11
-67.50311
21
24.994173
31
-305.78326
0
LINE
8
0
10
-67.50311
20
24.994173
30
-305.78326
11
-102.50964
21
12.914341
31
-271.2785
0
LINE
8
0
10
-102.50964
20
12.914341
30
-271.2785
11
-65.79477
21
-10.463495
31
-245.43277
0
LINE
8
0
10
-65.79477
20
-10.463495
30
-245.43277
11
-34.345306
21
2.1435585
31
-283.0005
0
LINE
8
0
10
-34.345306
20
2.1435585
30
-283.0005
11
-74.67366
21
19.669409
31
-308.01572
0
LINE
8
0
10
-74.67366
20
19.669409
30
-308.01572
11
-103.252106
21
0.74685836
31
-270.76505
0
LINE
8
0
10
-103.252106
20
0.74685836
30
-270.76505
11
-60.57459
21
-16.67356
31
-249.85428
0
LINE
8
0
10
-60.57459
20
-16.67356
30
-249.85428
11
-35.933792
21
1.959512
31
-289.91458
0
LINE
8
0
10
-35.933792
20
1.959512
30
-289.91458
11
-81.10133
21
12.7191105
31
-310.00476
0
LINE
8
0
10
-81.10133
20
12.7191105
30
-310.00476
11
-101.89174
21
-11.333229
31
-270.6093
0
LINE
8
0
10
-101.89174
20
-11.333229
30
-270.6093
11
-54.886974
21
-21.299335
31
-254.70793
0
LINE
8
0
10
-54.886974
20
-21.299335
30
-254.70793
11
-38.202915
21
1.489429
31
-296.67773
0
LINE
8
0
10
-38.202915
20
1.489429
30
-296.67773
11
-86.41292
21
4.257621
31
-311.76953
0
LINE
8
0
10
-86.41292
20
4.257621
30
-311.76953
11
-98.49721
21
-22.86509
31
-270.7642
0
LINE
8
0
10
-98.49721
20
-22.86509
30
-270.7642
11
-49.088226
21
-24.381163
31
-259.9182
0
LINE
8
0
10
-49.088226
20
-24.381163
30
-259.9182
11
-41.03227
21
0.41007328
31
-303.27216
0
LINE
8
0
10
-41.03227
20
0.41007328
30
-303.27216
11
-90.26965
21
-5.501219
31
-313.306
0
LINE
8
0
10
-90.26965
20
-5.501219
30
-313.306
11
-93.24074
21
-33.421333
31
-271.17657
0
LINE
8
0
10
-93.24074
20
-33.421333
30
-271.17657
11
-43.506153
21
-26.05643
31
-265.43002
0
LINE
8
0
10
-43.506153
20
-26.05643
30
-265.43002
11
-44.218334
21
-1.5560513
31
-309.68237
0
LINE
8
0
10
-44.218334
20
-1.5560513
30
-309.68237
11
-92.386185
21
-16.253235
31
-314.58994
0
LINE
8
0
10
-92.386185
20
-16.253235
30
-314.58994
11
-86.384995
21
-42.633743
31
-271.79492
0
LINE
8
0
10
-86.384995
20
-42.633743
30
-271.79492
11
-38.41361
21
-26.546429
31
-271.2081
0
LINE
8
0
10
-38.41361
20
-26.546429
30
-271.2081
11
-47.487103
21
-4.6201906
31
-315.8838
0
LINE
8
0
10
-47.487103
20
-4.6201906
30
-315.8838
11
-92.55852
21
-27.623705
31
-315.57712
0
LINE
8
0
10
-92.55852
20
-27.623705
30
-315.57712
11
-78.2675
21
-50.21306
31
-272.5803
0
LINE
8
0
10
-78.2675
20
-50.21306
30
-272.5803
11
-34.00944
21
-26.138184
31
-277.23236
0
LINE
8
0
10
-34.00944
20
-26.138184
30
-277.23236
11
-50.51746
21
-8.909343
31
-321.83896
0
LINE
8
0
10
-50.51746
20
-8.909343
30
-321.83896
11
-90.676254
21
-39.185654
31
-316.213
0
LINE
8
0
10
-90.676254
20
-39.185654
30
-316.213
11
-69.27423
21
-55.965195
31
-273.50983
0
LINE
8
0
10
-69.27423
20
-55.965195
30
-273.50983
11
-30.40256
21
-25.158524
31
-283.4953
0
LINE
8
0
10
-30.40256
20
-25.158524
30
-283.4953
11
-52.963367
21
-14.455792
31
-327.4903
0
LINE
8
0
10
-52.963367
20
-14.455792
30
-327.4903
11
-86.737335
21
-50.491844
31
-316.4342
0
LINE
8
0
10
-86.737335
20
-50.491844
30
-316.4342
11
-59.816135
21
-59.799812
31
-274.58395
0
LINE
8
0
10
-59.816135
20
-59.799812
30
-274.58395
11
-27.608524
21
-23.954319
31
-289.98755
0
LINE
8
0
10
-27.608524
20
-23.954319
30
-289.98755
11
-54.48225
21
-21.192308
31
-332.7588
0
LINE
8
0
10
-54.48225
20
-21.192308
30
-332.7588
11
-80.8466
21
-61.09426
31
-316.1855
0
LINE
8
0
10
-80.8466
20
-61.09426
30
-316.1855
11
-50.297424
21
-61.73153
31
-275.82565
0
LINE
8
0
10
-50.297424
20
-61.73153
30
-275.82565
11
-25.546583
21
-22.858793
31
-296.69843
0
LINE
8
0
10
-25.546583
20
-22.858793
30
-296.69843
11
-54.76378
21
-28.956276
31
-337.54504
0
LINE
8
0
10
-54.76378
20
-28.956276
30
-337.54504
11
-73.21326
21
-70.57884
31
-315.4201
0
LINE
8
0
10
-73.21326
20
-70.57884
30
-315.4201
11
-41.091446
21
-61.875706
31
-277.2811
0
LINE
8
0
10
-41.091446
20
-61.875706
30
-277.2811
11
-24.04956
21
-22.173822
31
-303.59726
0
LINE
8
0
10
-24.04956
20
-22.173822
30
-303.59726
11
-53.552704
21
-37.49771
31
-341.73123
0
LINE
8
0
10
-53.552704
20
-37.49771
30
-341.73123
11
-64.137375
21
-78.58427
31
-314.11606
0
LINE
8
0
10
-64.137375
20
-78.58427
30
-314.11606
11
-32.512447
21
-60.434372
31
-279.01404
0
LINE
8
0
10
-32.512447
20
-60.434372
30
-279.01404
11
-22.878847
21
-22.141304
31
-310.63675
0
LINE
8
0
10
-22.878847
20
-22.141304
30
-310.63675
11
-50.67355
21
-46.49729
31
-345.18857
0
LINE
8
0
10
-50.67355
20
-46.49729
30
-345.18857
11
-53.99147
21
-84.82554
31
-312.28015
0
LINE
8
0
10
-53.99147
20
-84.82554
30
-312.28015
11
-24.798048
21
-57.680573
31
-281.10013
0
LINE
8
0
10
-24.798048
20
-57.680573
30
-281.10013
11
-21.743464
21
-22.931044
31
-317.73587
0
LINE
8
0
10
-21.743464
20
-22.931044
30
-317.73587
11
-46.04558
21
-55.586567
31
-347.78494
0
LINE
8
0
10
-46.04558
20
-55.586567
30
-347.78494
11
-43.1956
21
-89.10926
31
-309.952
0
LINE
8
0
10
-43.1956
20
-89.10926
30
-309.952
11
-18.0933
21
-53.934967
31
-283.61743
0
LINE
8
0
10
-18.0933
20
-53.934967
30
-283.61743
11
-20.327862
21
-24.625607
31
-324.788
0
LINE
8
0
10
-20.327862
20
-24.625607
30
-324.788
11
-39.692326
21
-64.37112
31
-349.3953
0
LINE
8
0
10
-39.692326
20
-64.37112
30
-349.3953
11
-32.190914
21
-91.34177
31
-307.20963
0
LINE
8
0
10
-32.190914
20
-91.34177
30
-307.20963
11
-12.444097
21
-49.541912
31
-286.6363
0
LINE
8
0
10
-12.444097
20
-49.541912
30
-286.6363
11
-18.315622
21
-27.217102
31
-331.6493
0
LINE
8
0
10
-18.315622
20
-27.217102
30
-331.6493
11
-31.74437
21
-72.45746
31
-349.9129
0
LINE
8
0
10
-31.74437
20
-72.45746
30
-349.9129
11
-21.410072
21
-91.53163
31
-304.16635
0
LINE
8
0
10
-21.410072
20
-91.53163
30
-304.16635
11
-7.797225
21
-44.84237
31
-290.20914
0
LINE
8
0
10
-7.797225
20
-44.84237
30
-290.20914
11
-15.41992
21
-30.608707
31
-338.15027
0
LINE
8
0
10
-15.41992
20
-30.608707
30
-338.15027
11
-22.433767
21
-79.47977
31
-349.25977
0
LINE
8
0
10
-22.433767
20
-79.47977
30
-349.25977
11
-11.250347
21
-89.786156
31
-300.97034
0
LINE
8
0
10
-11.250347
20
-89.786156
30
-300.97034
11
-4.0090213
21
-40.15104
31
-294.36008
0
LINE
8
0
10
-4.0090213
20
-40.15104
30
-294.36008
11
-11.4077215
21
-34.62411
31
-344.09818
0
LINE
8
0
10
-11.4077215
20
-34.62411
30
-344.09818
11
-12.080679
21
-85.12269
31
-347.3962
0
LINE
8
0
10
-12.080679
20
-85.12269
30
-347.3962
11
-2.045651
21
-86.29525
31
-297.7893
0
LINE
8
0
10
-2.045651
20
-86.29525
30
-297.7893
11
-0.8601351
21
-35.733658
31
-299.0771
0
LINE
8
0
10
-0.8601351
20
-35.733658
30
-299.0771
11
-6.1209245
21
-39.01864
31
-349.28278
0
LINE
8
0
10
-6.1209245
20
-39.01864
30
-349.28278
11
-1.0744723
21
-89.13755
31
-344.3323
0
LINE
8
0
10
-1.0744723
20
-89.13755
30
-344.3323
11
5.9502378
21
-81.32157
31
-294.81223
0
LINE
8
0
10
5.9502378
20
-81.32157
30
-294.81223
11
1.9240134
21
-31.792969
31
-304.30237
0
LINE
8
0
10
1.9240134
20
-31.792969
30
-304.30237
11
0.50582695
21
-43.506363
31
-353.4962
0
LINE
8
0
10
0.50582695
20
-43.506363
30
-353.4962
11
10.151912
21
-91.36523
31
-340.12524
0
LINE
8
0
10
10.151912
20
-91.36523
30
-340.12524
11
12.580697
21
-75.17225
31
-292.2277
0
LINE
8
0
10
12.580697
20
-75.17225
30
-292.2277
11
4.6477704
21
-28.45252
31
-309.93323
0
LINE
8
0
10
4.6477704
20
-28.45252
30
-309.93323
11
8.437395
21
-47.773293
31
-356.53592
0
LINE
8
0
10
8.437395
20
-47.773293
30
-356.53592
11
21.147974
21
-91.73449
31
-334.89206
0
LINE
8
0
10
21.147974
20
-91.73449
30
-334.89206
11
17.792847
21
-68.18296
31
-290.21707
0
LINE
8
0
10
17.792847
20
-68.18296
30
-290.21707
11
7.618404
21
-25.754917
31
-315.81937
0
LINE
8
0
10
7.618404
20
-25.754917
30
-315.81937
11
17.53479
21
-51.506237
31
-358.2245
0
LINE
8
0
10
17.53479
20
-51.506237
30
-358.2245
11
31.476141
21
-90.27096
31
-328.798
0
LINE
8
0
10
31.476141
20
-90.27096
30
-328.798
11
21.635622
21
-60.682495
31
-288.9354
0
LINE
8
0
10
21.635622
20
-60.682495
30
-288.9354
11
11.118582
21
-23.66246
31
-321.76813
0
LINE
8
0
10
11.118582
20
-23.66246
30
-321.76813
11
27.56209
21
-54.418285
31
-358.4223
0
LINE
8
0
10
27.56209
20
-54.418285
30
-358.4223
11
40.739098
21
-87.08817
31
-322.06067
0
LINE
8
0
10
40.739098
20
-87.08817
30
-322.06067
11
24.254171
21
-52.98309
31
-288.5037
0
LINE
8
0
10
24.254171
20
-52.98309
30
-288.5037
11
15.380947
21
-22.065622
31
-327.5476
0
LINE
8
0
10
15.380947
20
-22.065622
30
-327.5476
11
38.199223
21
-56.26742
31
-357.03845
0
LINE
8
0
10
38.199223
20
-56.26742
30
-357.03845
11
48.605114
21
-82.3782
31
-314.92844
0
LINE
8
0
10
48.605114
20
-82.3782
30
-314.92844
11
25.872229
21
-45.349285
31
-288.99442
0
LINE
8
0
10
25.872229
20
-45.349285
30
-288.99442
11
20.566326
21
-20.795673
31
-332.9035
0
LINE
8
0
10
20.566326
20
-20.795673
30
-332.9035
11
49.061867
21
-56.876236
31
-354.04074
0
LINE
8
0
10
49.061867
20
-56.876236
30
-354.04074
11
54.82845
21
-76.39381
31
-307.6822
0
LINE
8
0
10
54.82845
20
-76.39381
30
-307.6822
11
26.772602
21
-37.986897
31
-290.4242
0
LINE
8
0
10
26.772602
20
-37.986897
30
-290.4242
11
26.74789
21
-19.643585
31
-337.56836
0
LINE
8
0
10
26.74789
20
-19.643585
30
-337.56836
11
59.724083
21
-56.141026
31
-349.46384
0
LINE
8
0
10
59.724083
20
-56.141026
30
-349.46384
11
59.264606
21
-69.429695
31
-300.6139
0
LINE
8
0
10
59.264606
20
-69.429695
30
-300.6139
11
27.271305
21
-31.030806
31
-292.74918
0
LINE
8
0
10
27.271305
20
-31.030806
30
-292.74918
11
33.902275
21
-18.381268
31
-341.27856
0
LINE
8
0
10
33.902275
20
-18.381268
30
-341.27856
11
69.74881
21
-54.044083
31
-343.41052
0
LINE
8
0
10
69.74881
20
-54.044083
30
-343.41052
11
61.8733
21
-61.796696
31
-294.00558
0
LINE
8
0
10
61.8733
20
-61.796696
30
-294.00558
11
27.69185
21
-24.543068
31
-295.86212
0
LINE
8
0
10
27.69185
20
-24.543068
30
-295.86212
11
41.90549
21
-16.782377
31
-343.78714
0
LINE
8
0
10
41.90549
20
-16.782377
30
-343.78714
11
78.71457
21
-50.649628
31
-336.0523
0
LINE
8
0
10
78.71457
20
-50.649628
30
-336.0523
11
62.723667
21
-53.803024
31
-288.1244
0
LINE
8
0
10
62.723667
20
-53.803024
30
-288.1244
11
28.336742
21
-18.5135
31
-299.5949
0
LINE
8
0
10
28.336742
20
-18.5135
30
-299.5949
11
50.54196
21
-14.646313
31
-344.8851
0
LINE
8
0
10
50.54196
20
-14.646313
30
-344.8851
11
86.24509
21
-46.10211
31
-327.6189
0
LINE
8
0
10
86.24509
20
-46.10211
30
-327.6189
11
61.979477
21
-45.728317
31
-283.19675
0
LINE
8
0
10
61.979477
20
-45.728317
30
-283.19675
11
29.46046
21
-12.864105
31
-303.73212
0
LINE
8
0
10
29.46046
20
-12.864105
30
-303.73212
11
59.51651
21
-11.816711
31
-344.41254
0
LINE
8
0
10
59.51651
20
-11.816711
30
-344.41254
11
92.03038
21
-40.60603
31
-318.4017
0
LINE
8
0
10
92.03038
20
-40.60603
30
-318.4017
11
59.890846
21
-37.808952
31
-279.4005
0
LINE
8
0
10
59.890846
20
-37.808952
30
-279.4005
11
31.251188
21
-7.470249
31
-308.01096
0
LINE
8
0
10
31.251188
20
-7.470249
30
-308.01096
11
68.47044
21
-8.195746
31
-342.27094
0
LINE
8
0
10
68.47044
20
-8.195746
30
-342.27094
11
95.85089
21
-34.42011
31
-308.72208
0
LINE
8
0
10
95.85089
20
-34.42011
30
-308.72208
11
56.7627
21
-30.218136
31
-276.84924
0
LINE
8
0
10
56.7627
20
-30.218136
30
-276.84924
11
33.812527
21
-2.1715755
31
-312.14575
0
LINE
8
0
10
33.812527
20
-2.1715755
30
-312.14575
11
77.01102
21
-3.7574615
31
-338.43427
0
LINE
8
0
10
77.01102
20
-3.7574615
30
-338.43427
11
97.58865
21
-27.827885
31
-298.93307
0
LINE
8
0
10
97.58865
20
-27.827885
30
-298.93307
11
52.942383
21
-23.063717
31
-275.58795
0
LINE
8
0
10
52.942383
20
-23.063717
30
-275.58795
11
37.153748
21
3.2031374
31
-315.83502
0
LINE
8
0
10
37.153748
20
3.2031374
30
-315.83502
11
84.73532
21
1.4494991
31
-332.95236
0
LINE
8
0
10
84.73532
20
1.4494991
30
-332.95236
11
97.23343
21
-21.120998
31
-289.38928
0
LINE
8
0
10
97.23343
20
-21.120998
30
-289.38928
11
48.781204
21
-16.379778
31
-275.58823
0
LINE
8
0
10
48.781204
20
-16.379778
30
-275.58823
11
41.190662
21
8.818947
31
-318.7898
0
LINE
8
0
10
41.190662
20
8.818947
30
-318.7898
11
91.25984
21
7.302417
31
-325.9518
0
LINE
8
0
10
91.25984
20
7.302417
30
-325.9518
11
94.8833
21
-14.57407
31
-280.43692
0
LINE
8
0
10
94.8833
20
-14.57407
30
-280.43692
11
44.615276
21
-10.134175
31
-276.74802
0
LINE
8
0
10
44.615276
20
-10.134175
30
-276.74802
11
45.749134
21
14.811161
31
-320.74228
0
LINE
8
0
10
45.749134
20
14.811161
30
-320.74228
11
96.24417
21
13.613985
31
-317.63382
0
LINE
8
0
10
96.24417
20
13.613985
30
-317.63382
11
90.73305
21
-8.425944
31
-272.38904
0
LINE
8
0
10
90.73305
20
-8.425944
30
-272.38904
11
40.733784
21
-4.234829
31
-278.8995
0
LINE
8
0
10
40.733784
20
-4.234829
30
-278.8995
11
50.57631
21
21.267885
31
-321.46487
0
LINE
8
0
10
50.57631
20
21.267885
30
-321.46487
11
99.42023
21
20.143057
31
-308.26328
0
LINE
8
0
10
99.42023
20
20.143057
30
-308.26328
11
85.05977
21
-2.8616533
31
-265.51306
0
LINE
8
0
10
85.05977
20
-2.8616533
30
-265.51306
11
37.360672
21
1.4544692
31
-281.81824
0
LINE
8
0
10
37.360672
20
1.4544692
30
-281.81824
11
55.364597
21
28.218372
31
-320.78845
0
LINE
8
0
10
55.364597
20
28.218372
30
-320.78845
11
100.607635
21
26.614231
31
-298.15793
0
LINE
8
0
10
100.607635
20
26.614231
30
-298.15793
11
78.2003
21
1.9998665
31
-260.0155
0
LINE
8
0
10
78.2003
20
1.9998665
30
-260.0155
11
34.640083
21
7.094202
31
-285.23245
0
LINE
8
0
10
34.640083
20
7.094202
30
-285.23245
11
59.76769
21
35.621235
31
-318.6094
0
LINE
8
0
10
59.76769
20
35.621235
30
-318.6094
11
99.72739
21
32.73748
31
-287.67178
0
LINE
8
0
10
99.72739
20
32.73748
30
-287.67178
11
70.529755
21
6.1136265
31
-256.03278
0
LINE
8
0
10
70.529755
20
6.1136265
30
-256.03278
11
32.622543
21
12.853452
31
-288.8487
0
LINE
8
0
10
32.622543
20
12.853452
30
-288.8487
11
63.43934
21
43.36644
31
-314.9004
0
LINE
8
0
10
63.43934
20
43.36644
30
-314.9004
11
96.806366
21
38.23245
31
-277.18094
0
LINE
8
0
10
96.806366
20
38.23245
30
-277.18094
11
62.428066
21
9.50778
31
-253.6232
0
LINE
8
0
10
62.428066
20
9.50778
30
-253.6232
11
31.268137
21
18.88244
31
-292.3574
0
LINE
8
0
10
31.268137
20
18.88244
30
-292.3574
11
66.043015
21
51.27249
31
-309.7118
0
LINE
8
0
10
66.043015
20
51.27249
30
-309.7118
11
91.976746
21
42.84771
31
-267.05887
0
LINE
8
0
10
91.976746
20
42.84771
30
-267.05887
11
54.256767
21
12.279046
31
-252.767
0
LINE
8
0
10
54.256767
20
12.279046
30
-252.767
11
30.449078
21
25.29848
31
-295.46194
0
LINE
8
0
10
30.449078
20
25.29848
30
-295.46194
11
67.29416
21
59.101875
31
-303.1714
0
LINE
8
0
10
67.29416
20
59.101875
30
-303.1714
11
85.46471
21
46.381363
31
-257.66068
0
LINE
8
0
10
85.46471
20
46.381363
30
-257.66068
11
46.33179
21
14.581113
31
-253.36943
0
LINE
8
0
10
46.33179
20
14.581113
30
-253.36943
11
29.962893
21
32.16399
31
-297.88864
0
LINE
8
0
10
29.962893
20
32.16399
30
-297.88864
11
66.97731
21
66.57424
31
-295.4758
0
LINE
8
0
10
66.97731
20
66.57424
30
-295.4758
11
77.57585
21
48.700447
31
-249.30786
0
LINE
8
0
10
77.57585
20
48.700447
30
-249.30786
11
38.905804
21
16.609367
31
-255.26617
0
LINE
8
0
10
38.905804
20
16.609367
30
-255.26617
11
29.551811
21
39.47812
31
-299.40875
0
LINE
8
0
10
29.551811
20
39.47812
30
-299.40875
11
64.96208
21
73.384384
31
-286.88168
0
LINE
8
0
10
64.96208
20
73.384384
30
-286.88168
11
68.66991
21
49.744026
31
-242.26521
0
LINE
8
0
10
68.66991
20
49.744026
30
-242.26521
11
32.14672
21
18.57943
31
-258.23886
0
LINE
8
0
10
32.14672
20
18.57943
30
-258.23886
11
28.925343
21
47.16708
31
-299.84824
0
LINE
8
0
10
28.925343
20
47.16708
30
-299.84824
11
61.212986
21
79.22436
31
-277.69687
0
LINE
8
0
10
61.212986
20
79.22436
30
-277.69687
11
59.13999
21
49.538803
31
-236.73785
0
LINE
8
0
10
59.13999
20
49.538803
30
-236.73785
11
26.135298
21
20.7069
31
-262.02307
0
LINE
8
0
10
26.135298
20
20.7069
30
-262.02307
11
27.78683
21
55.0846
31
-299.0985
0
LINE
8
0
10
27.78683
20
55.0846
30
-299.0985
11
55.8008
21
83.80852
31
-268.25574
0
LINE
8
0
10
55.8008
20
83.80852
30
-268.25574
11
49.38055
21
48.188404
31
-232.85623
0
LINE
8
0
10
49.38055
20
48.188404
30
-232.85623
11
20.856665
21
23.184599
31
-266.33542
0
LINE
8
0
10
20.856665
20
23.184599
30
-266.33542
11
25.858389
21
63.014412
31
-297.12112
0
LINE
8
0
10
25.858389
20
63.014412
30
-297.12112
11
48.894802
21
86.8939
31
-258.90347
0
LINE
8
0
10
48.894802
20
86.8939
30
-258.90347
11
39.764584
21
45.87447
31
-230.6753
0
LINE
8
0
10
39.764584
20
45.87447
30
-230.6753
11
16.213333
21
26.162046
31
-270.87827
0
LINE
8
0
10
16.213333
20
26.162046
30
-270.87827
11
22.906801
21
70.68244
31
-293.9504
0
LINE
8
0
10
22.906801
20
70.68244
30
-293.9504
11
40.751865
21
88.29952
31
-249.98059
0
LINE
8
0
10
40.751865
20
88.29952
30
-249.98059
11
30.613037
21
42.83207
31
-230.17485
0
LINE
8
0
10
30.613037
20
42.83207
30
-230.17485
11
12.032789
21
29.72924
31
-275.36838
0
LINE
8
0
10
12.032789
20
29.72924
30
-275.36838
11
18.768297
21
77.780235
31
-289.68768
0
LINE
8
0
10
18.768297
20
77.780235
30
-289.68768
11
31.699657
21
87.926056
31
-241.81023
0
LINE
8
0
10
31.699657
20
87.926056
30
-241.81023
11
22.180737
21
39.344437
31
-231.26346
0
LINE
8
0
10
22.180737
20
39.344437
30
-231.26346
11
8.088993
21
33.901154
31
-279.54358
0
LINE
8
0
10
8.088993
20
33.901154
30
-279.54358
11
13.359754
21
83.97344
31
-284.49664
0
LINE
8
0
10
13.359754
20
83.97344
30
-284.49664
11
22.11607
21
85.75944
31
-234.66805
0
LINE
8
0
10
22.11607
20
85.75944
30
-234.66805
11
14.636095
21
35.710148
31
-233.78983
0
LINE
8
0
10
14.636095
20
35.710148
30
-233.78983
11
4.12356
21
38.617004
31
-283.18762
0
LINE
8
0
10
4.12356
20
38.617004
30
-283.18762
11
6.693579
21
88.93479
31
-278.59033
0
LINE
8
0
10
6.693579
20
88.93479
30
-278.59033
11
12.401601
21
81.87963
31
-228.7826
0
LINE
8
0
10
12.401601
20
81.87963
30
-228.7826
11
8.056164
21
32.227196
31
-237.55113
0
LINE
8
0
10
8.056164
20
32.227196
30
-237.55113
11
-0.1270535
21
43.731594
31
-286.12836
0
LINE
8
0
10
-0.1270535
20
43.731594
30
-286.12836
11
-1.1206493
21
92.36691
31
-272.21466
0
LINE
8
0
10
-1.1206493
20
92.36691
30
-272.21466
11
2.9523766
21
76.45795
31
-224.32257
0
LINE
8
0
10
2.9523766
20
76.45795
30
-224.32257
11
2.423686
21
29.163664
31
-242.31168
0
LINE
8
0
10
2.423686
20
29.163664
30
-242.31168
11
-4.906522
21
49.02854
31
-288.254
0
LINE
8
0
10
-4.906522
20
49.02854
30
-288.254
11
-9.881226
21
94.02013
31
-265.63998
0
LINE
8
0
10
-9.881226
20
94.02013
30
-265.63998
11
-5.866789
21
69.74799
31
-221.39076
0
LINE
8
0
10
-5.866789
20
69.74799
30
-221.39076
11
-2.3650198
21
26.738808
31
-247.81697
0
LINE
8
0
10
-2.3650198
20
26.738808
30
-247.81697
11
-10.414007
21
54.230457
31
-289.5119
0
LINE
8
0
10
-10.414007
20
54.230457
30
-289.5119
11
-19.304756
21
93.71785
31
-259.14093
0
LINE
8
0
10
-19.304756
20
93.71785
30
-259.14093
11
-13.746641
21
62.064
31
-220.02145
0
LINE
8
0
10
-13.746641
20
62.064
30
-220.02145
11
-6.486989
21
25.105087
31
-253.80487
0
LINE
8
0
10
-6.486989
20
25.105087
30
-253.80487
11
-16.782331
21
59.013313
31
-289.90717
0
LINE
8
0
10
-16.782331
20
59.013313
30
-289.90717
11
-29.044231
21
91.37188
31
-252.98001
0
LINE
8
0
10
-29.044231
20
91.37188
30
-252.98001
11
-20.453476
21
53.76832
31
-220.18752
0
LINE
8
0
10
-20.453476
20
53.76832
30
-220.18752
11
-10.173654
21
24.332573
31
-260.03177
0
LINE
8
0
10
-10.173654
20
24.332573
30
-260.03177
11
-24.06356
21
63.035656
31
-289.49905
0
LINE
8
0
10
-24.06356
20
63.035656
30
-289.49905
11
-38.712524
21
86.99067
31
-247.39053
0
LINE
8
0
10
-38.712524
20
86.99067
30
-247.39053
11
-25.844097
21
45.246017
31
-221.80484
0
LINE
8
0
10
-25.844097
20
45.246017
30
-221.80484
11
-13.687235
21
24.40357
31
-266.27066
0
LINE
8
0
10
-13.687235
20
24.40357
30
-266.27066
11
-32.21746
21
65.955086
31
-288.39197
0
LINE
8
0
10
-32.21746
20
65.955086
30
-288.39197
11
-47.907722
21
80.68564
31
-242.57979
0
LINE
8
0
10
-47.907722
20
80.68564
30
-242.57979
11
-29.87279
21
36.877945
31
-224.74168
0
LINE
8
0
10
-29.87279
20
36.877945
30
-224.74168
11
-17.29536
21
25.212175
31
-272.3348
0
LINE
8
0
10
-17.29536
20
25.212175
30
-272.3348
11
-41.11159
21
67.46073
31
-286.72424
0
LINE
8
0
10
-41.11159
20
67.46073
30
-286.72424
11
-56.241028
21
72.66324
31
-238.69797
0
LINE
8
0
10
-56.241028
20
72.66324
30
-238.69797
11
-32.590225
21
29.013292
31
-228.83179
0
LINE
8
0
10
-32.590225
20
29.013292
30
-228.83179
11
-21.243637
21
26.565845
31
-278.06982
0
LINE
8
0
10
-21.243637
20
26.565845
30
-278.06982
11
-50.525085
21
67.2934
31
-284.65607
0
LINE
8
0
10
-50.525085
20
67.2934
30
-284.65607
11
-63.364075
21
63.222237
31
-235.85612
0
LINE
8
0
10
-63.364075
20
63.222237
30
-235.85612
11
-34.135616
21
21.948063
31
-233.88821
0
LINE
8
0
10
-34.135616
20
21.948063
30
-233.88821
11
-25.734085
21
28.207869
31
-283.3768
0
LINE
8
0
10
-25.734085
20
28.207869
30
-283.3768
11
-60.161533
21
65.26773
31
-282.35638
0
LINE
8
0
10
-60.161533
20
65.26773
30
-282.35638
11
-68.992905
21
52.73107
31
-234.10893
0
LINE
8
0
10
-68.992905
20
52.73107
30
-234.10893
11
-34.72805
21
15.909273
31
-239.70926
0
LINE
8
0
10
-34.72805
20
15.909273
30
-239.70926
11
-30.902548
21
29.82747
31
-288.19424
0
LINE
8
0
10
-30.902548
20
29.82747
30
-288.19424
11
-69.66725
21
61.28917
31
-279.9904
0
LINE
8
0
10
-69.66725
20
61.28917
30
-279.9904
11
-72.92352
21
41.603245
31
-233.45894
0
LINE
8
0
10
-72.92352
20
41.603245
30
-233.45894
11
-34.634407
21
11.030015
31
-246.10529
0
LINE
8
0
10
-34.634407
20
11.030015
30
-246.10529
11
-36.80108
21
31.081524
31
-292.49884
0
LINE
8
0
10
-36.80108
20
31.081524
30
-292.49884
11
-78.65495
21
55.364437
31
-277.70822
0
LINE
8
0
10
-78.65495
20
55.364437
30
-277.70822
11
-75.05354
21
30.285889
31
-233.8734
0
LINE
8
0
10
-75.05354
20
30.285889
30
-233.8734
11
-34.156322
21
7.35131
31
-252.89667
0
LINE
8
0
10
-34.156322
20
7.35131
30
-252.89667
11
-43.39391
21
31.62759
31
-296.30518
0
LINE
8
0
10
-43.39391
20
31.62759
30
-296.30518
11
-86.731125
21
47.605362
31
-275.63406
0
LINE
8
0
10
-86.731125
20
47.605362
30
-275.63406
11
-75.3802
21
19.217987
31
-235.27908
0
LINE
8
0
10
-75.3802
20
19.217987
30
-235.27908
11
-33.601974
21
4.815528
31
-259.9218
0
LINE
8
0
10
-33.601974
20
4.815528
30
-259.9218
11
-50.554466
21
31.145603
31
-299.65182
0
LINE
8
0
10
-50.554466
20
31.145603
30
-299.65182
11
-93.519394
21
38.226925
31
-273.86734
0
LINE
8
0
10
-93.519394
20
38.226925
30
-273.86734
11
-74.0031
21
8.810778
31
-237.57866
0
LINE
8
0
10
-74.0031
20
8.810778
30
-237.57866
11
-33.254673
21
3.2718139
31
-267.05
0
LINE
8
0
10
-33.254673
20
3.2718139
30
-267.05
11
-58.06303
21
29.358995
31
-302.59113
0
LINE
8
0
10
-58.06303
20
29.358995
30
-302.59113
11
-98.69339
21
27.53663
31
-272.47037
0
LINE
8
0
10
-98.69339
20
27.53663
30
-272.47037
11
-71.114624
21
-0.57852936
31
-240.65973
0
LINE
8
0
10
-71.114624
20
-0.57852936
30
-240.65973
11
-33.35016
21
2.4927094
31
-274.18588
0
LINE
8
0
10
-33.35016
20
2.4927094
30
-274.18588
11
-65.63756
21
26.067743
31
-305.1831
0
LINE
8
0
10
-65.63756
20
26.067743
30
-305.1831
11
-101.99768
21
15.914263
31
-271.4659
0
LINE
8
0
10
-101.99768
20
15.914263
30
-271.4659
11
-66.9845
21
-8.6684265
31
-244.40564
0
LINE
8
0
10
-66.9845
20
-8.6684265
30
-244.40564
11
-34.05983
21
2.1849375
31
-281.25104
0
LINE
8
0
10
-34.05983
20
2.1849375
30
-281.25104
11
-72.934875
21
21.155107
31
-307.48178
0
LINE
8
0
10
-72.934875
20
21.155107
30
-307.48178
11
-103.26384
21
3.7985666
31
-270.8577
0
LINE
8
0
10
-103.26384
20
3.7985666
30
-270.8577
11
-61.936565
21
-15.268902
31
-248.70526
0
LINE
8
0
10
-61.936565
20
-15.268902
30
-248.70526
11
-35.470726
21
2.0201075
31
-288.2013
0
LINE
8
0
10
-35.470726
20
2.0201075
30
-288.2013
11
-79.5854
21
14.604546
31
-309.52875
0
LINE
8
0
10
-79.5854
20
14.604546
30
-309.52875
11
-102.42699
21
-8.347014
31
-270.61697
0
LINE
8
0
10
-102.42699
20
-8.347014
30
-270.61697
11
-56.331894
21
-20.290724
31
-253.45883
0
LINE
8
0
10
-56.331894
20
-20.290724
30
-253.45883
11
-37.5776
21
1.6527681
31
-295.00354
0
LINE
8
0
10
-37.5776
20
1.6527681
30
-295.00354
11
-85.20981
21
6.504262
31
-311.34885
0
LINE
8
0
10
-85.20981
20
6.504262
30
-311.34885
11
-99.52902
21
-20.057585
31
-270.6996
0
LINE
8
0
10
-99.52902
20
-20.057585
30
-270.6996
11
-50.52905
21
-23.749283
31
-258.58588
0
LINE
8
0
10
-50.52905
20
-23.749283
30
-258.58588
11
-40.281944
21
0.75301075
31
-301.63977
0
LINE
8
0
10
-40.281944
20
0.75301075
30
-301.63977
11
-89.457535
21
-2.9544964
31
-312.94492
0
LINE
8
0
10
-89.457535
20
-2.9544964
30
-312.94492
11
-94.71678
21
-30.894936
31
-271.05264
0
LINE
8
0
10
-94.71678
20
-30.894936
30
-271.05264
11
-44.865196
21
-25.758595
31
-264.02612
0
LINE
8
0
10
-44.865196
20
-25.758595
30
-264.02612
11
-43.403168
21
-0.96825504
31
-308.0991
0
LINE
8
0
10
-43.403168
20
-0.96825504
30
-308.0991
11
-92.03323
21
-13.491912
31
-314.29446
0
LINE
8
0
10
-92.03323
20
-13.491912
30
-314.29446
11
-88.23056
21
-40.47419
31
-271.62265
0
LINE
8
0
10
-88.23056
20
-40.47419
30
-271.62265
11
-39.628807
21
-26.520514
31
-269.73965
0
LINE
8
0
10
-39.628807
20
-26.520514
30
-269.73965
11
-46.67995
21
-3.7426577
31
-314.35544
0
LINE
8
0
10
-46.67995
20
-3.7426577
30
-314.35544
11
-92.706436
21
-24.746979
31
-315.35986
0
LINE
8
0
10
-92.706436
20
-24.746979
30
-315.35986
11
-80.39377
21
-48.48366
31
-272.36926
0
LINE
8
0
10
-80.39377
20
-48.48366
30
-272.36926
11
-35.03755
21
-26.305798
31
-275.7051
0
LINE
8
0
10
-35.03755
20
-26.305798
30
-275.7051
11
-49.801563
21
-7.7188272
31
-320.37643
0
LINE
8
0
10
-49.801563
20
-7.7188272
30
-320.37643
11
-91.34204
21
-36.302856
31
-316.08902
0
LINE
8
0
10
-91.34204
20
-36.302856
30
-316.08902
11
-71.58354
21
-54.705494
31
-273.26505
0
LINE
8
0
10
-71.58354
20
-54.705494
30
-273.26505
11
-31.227196
21
-25.438587
31
-281.90704
0
LINE
8
0
10
-31.227196
20
-25.438587
30
-281.90704
11
-52.425823
21
-12.953342
31
-326.11
0
LINE
8
0
10
-52.425823
20
-12.953342
30
-326.11
11
-87.91087
21
-47.71358
31
-316.4216
0
LINE
8
0
10
-87.91087
20
-47.71358
30
-316.4216
11
-62.201298
21
-59.021706
31
-274.3008
0
LINE
8
0
10
-62.201298
20
-59.021706
30
-274.3008
11
-28.233763
21
-24.258177
31
-288.3429
0
LINE
8
0
10
-28.233763
20
-24.258177
30
-288.3429
11
-54.207195
21
-19.403961
31
-331.48267
0
LINE
8
0
10
-54.207195
20
-19.403961
30
-331.48267
11
-82.49248
21
-58.532627
31
-316.2951
0
LINE
8
0
10
-82.49248
20
-58.532627
30
-316.2951
11
-52.66145
21
-61.422245
31
-275.49728
0
LINE
8
0
10
-52.66145
20
-61.422245
30
-275.49728
11
-26.001223
21
-23.104736
31
-295.00223
0
LINE
8
0
10
-26.001223
20
-23.104736
30
-295.00223
11
-54.82427
21
-26.931028
31
-336.39975
0
LINE
8
0
10
-54.82427
20
-26.931028
30
-336.39975
11
-75.26976
21
-68.33403
31
-315.66046
0
LINE
8
0
10
-75.26976
20
-68.33403
30
-315.66046
11
-43.345245
21
-61.997513
31
-276.89395
0
LINE
8
0
10
-43.345245
20
-61.997513
30
-276.89395
11
-24.383059
21
-22.291824
31
-301.85794
0
LINE
8
0
10
-24.383059
20
-22.291824
30
-301.85794
11
-54.007515
21
-35.307133
31
-340.7481
0
LINE
8
0
10
-54.007515
20
-35.307133
30
-340.7481
11
-66.521484
21
-76.73965
31
-314.49026
0
LINE
8
0
10
-66.521484
20
-76.73965
30
-314.49026
11
-34.58289
21
-60.928
31
-278.5506
0
LINE
8
0
10
-34.58289
20
-60.928
30
-278.5506
11
-23.15626
21
-22.077465
31
-308.86783
0
LINE
8
0
10
-23.15626
20
-22.077465
30
-308.86783
11
-51.555607
21
-44.223568
31
-344.3998
0
LINE
8
0
10
-51.555607
20
-44.223568
30
-344.3998
11
-56.606384
21
-83.44254
31
-312.7889
0
LINE
8
0
10
-56.606384
20
-83.44254
30
-312.7889
11
-26.636406
21
-58.475937
31
-280.54117
0
LINE
8
0
10
-26.636406
20
-58.475937
30
-280.54117
11
-22.041197
21
-22.650469
31
-315.96118
0
LINE
8
0
10
-22.041197
20
-22.650469
30
-315.96118
11
-47.367508
21
-53.328384
31
-347.22354
0
LINE
8
0
10
-47.367508
20
-53.328384
30
-347.22354
11
-45.93138
21
-88.22875
31
-310.57642
0
LINE
8
0
10
-45.93138
20
-88.22875
30
-310.57642
11
-19.671082
21
-54.947056
31
-282.94336
0
LINE
8
0
10
-19.671082
20
-54.947056
30
-282.94336
11
-20.725529
21
-24.115953
31
-323.03647
0
LINE
8
0
10
-20.725529
20
-24.115953
30
-323.03647
11
-41.43718
21
-62.225956
31
-349.09125
0
LINE
8
0
10
-41.43718
20
-62.225956
30
-349.09125
11
-34.936897
21
-90.97689
31
-307.92685
0
LINE
8
0
10
-34.936897
20
-90.97689
30
-307.92685
11
-13.75861
21
-50.68146
31
-285.83145
0
LINE
8
0
10
-13.75861
20
-50.68146
30
-285.83145
11
-18.891537
21
-26.489428
31
-329.9621
0
LINE
8
0
10
-18.891537
20
-26.489428
30
-329.9621
11
-33.86983
21
-70.522514
31
-349.8906
0
LINE
8
0
10
-33.86983
20
-70.522514
30
-349.8906
11
-24.062185
21
-91.6719
31
-304.94897
0
LINE
8
0
10
-24.062185
20
-91.6719
30
-304.94897
11
-8.871372
21
-46.02761
31
-289.26233
0
LINE
8
0
10
-8.871372
20
-46.02761
30
-289.26233
11
-16.240997
21
-29.694948
31
-336.57043
0
LINE
8
0
10
-16.240997
20
-29.694948
30
-336.57043
11
-24.872957
21
-77.84461
31
-349.53433
0
LINE
8
0
10
-24.872957
20
-77.84461
30
-349.53433
11
-13.71221
21
-90.39412
31
-301.77374
0
LINE
8
0
10
-13.71221
20
-90.39412
30
-301.77374
11
-4.8864493
21
-41.30708
31
-293.26846
0
LINE
8
0
10
-4.8864493
20
-41.30708
30
-293.26846
11
-12.525319
21
-33.57333
31
-342.67334
0
LINE
8
0
10
-12.525319
20
-33.57333
30
-342.67334
11
-14.746608
21
-83.85436
31
-347.97748
0
LINE
8
0
10
-14.746608
20
-83.85436
30
-347.97748
11
-4.242023
21
-87.31913
31
-298.57388
0
LINE
8
0
10
-4.242023
20
-87.31913
30
-298.57388
11
-1.6016749
21
-36.80016
31
-297.84695
0
LINE
8
0
10
-1.6016749
20
-36.80016
30
-297.84695
11
-7.567415
21
-37.90056
31
-348.07053
0
LINE
8
0
10
-7.567415
20
-37.90056
30
-348.07053
11
-3.8640156
21
-88.29686
31
-345.20834
0
LINE
8
0
10
-3.8640156
20
-88.29686
30
-345.20834
11
4.074916
21
-82.68734
31
-295.52667
0
LINE
8
0
10
4.074916
20
-82.68734
30
-295.52667
11
1.2458496
21
-32.725643
31
-302.95273
0
LINE
8
0
10
1.2458496
20
-32.725643
30
-302.95273
11
-1.2762985
21
-42.39342
31
-352.54578
0
LINE
8
0
10
-1.2762985
20
-42.39342
30
-352.54578
11
7.3496213
21
-90.982346
31
-341.2771
0
LINE
8
0
10
7.3496213
20
-90.982346
30
-341.2771
11
11.055819
21
-76.801926
31
-292.82693
0
LINE
8
0
10
11.055819
20
-76.801926
30
-292.82693
11
3.955309
21
-29.226942
31
-308.49637
0
LINE
8
0
10
3.955309
20
-29.226942
30
-308.49637
11
6.3379703
21
-46.74434
31
-355.89615
0
LINE
8
0
10
6.3379703
20
-46.74434
30
-355.89615
11
18.445148
21
-91.81711
31
-336.28683
0
LINE
8
0
10
18.445148
20
-91.81711
30
-336.28683
11
16.621689
21
-69.990524
31
-290.65686
0
LINE
8
0
10
16.621689
20
-69.990524
30
-290.65686
11
6.8363714
21
-26.369364
31
-314.33536
0
LINE
8
0
10
6.8363714
20
-26.369364
30
-314.33536
11
15.162935
21
-50.64085
31
-357.93774
0
LINE
8
0
10
15.162935
20
-50.64085
30
-357.93774
11
28.979336
21
-90.803665
31
-330.39243
0
LINE
8
0
10
28.979336
20
-90.803665
30
-330.39243
11
20.796978
21
-62.58806
31
-289.1801
0
LINE
8
0
10
20.796978
20
-62.58806
30
-289.1801
11
10.1800585
21
-24.133833
31
-320.2859
0
LINE
8
0
10
10.1800585
20
-24.133833
30
-320.2859
11
24.98414
21
-53.780945
31
-358.5185
0
LINE
8
0
10
24.98414
20
-53.780945
30
-358.5185
11
38.542637
21
-88.03571
31
-323.7909
0
LINE
8
0
10
38.542637
20
-88.03571
30
-323.7909
11
23.70266
21
-54.909744
31
-288.52713
0
LINE
8
0
10
23.70266
20
-54.909744
30
-288.52713
11
14.233786
21
-22.426777
31
-326.1327
0
LINE
8
0
10
14.233786
20
-22.426777
30
-326.1327
11
35.50269
21
-55.915302
31
-357.53558
0
LINE
8
0
10
35.50269
20
-55.915302
30
-357.53558
11
46.784515
21
-83.68582
31
-316.73257
0
LINE
8
0
10
46.784515
20
-83.68582
30
-316.73257
11
25.54704
21
-47.239655
31
-288.7832
0
LINE
8
0
10
25.54704
20
-47.239655
30
-288.7832
11
19.177979
21
-21.09353
31
-331.61932
0
LINE
8
0
10
19.177979
20
-21.09353
30
-331.61932
11
46.3483
21
-56.848045
31
-354.94052
0
LINE
8
0
10
46.3483
20
-56.848045
30
-354.94052
11
53.435825
21
-77.99335
31
-309.48688
0
LINE
8
0
10
53.435825
20
-77.99335
30
-309.48688
11
26.597101
21
-39.79207
31
-289.9807
0
LINE
8
0
10
26.597101
20
-39.79207
30
-289.9807
11
25.108925
21
-19.933079
31
-336.4821
0
LINE
8
0
10
25.108925
20
-19.933079
30
-336.4821
11
57.101482
21
-56.453636
31
-350.75143
0
LINE
8
0
10
57.101482
20
-56.453636
30
-350.75143
11
58.326958
21
-71.24557
31
-302.34842
0
LINE
8
0
10
58.326958
20
-71.24557
30
-302.34842
11
27.16522
21
-32.72489
31
-292.09045
0
LINE
8
0
10
27.16522
20
-32.72489
30
-292.09045
11
32.02744
21
-18.719706
31
-340.45428
0
LINE
8
0
10
32.02744
20
-18.719706
30
-340.45428
11
67.32623
21
-54.69415
31
-345.05368
0
LINE
8
0
10
67.32623
20
-54.69415
30
-345.05368
11
61.390614
21
-63.750584
31
-295.59955
0
LINE
8
0
10
61.390614
20
-63.750584
30
-295.59955
11
27.577717
21
-26.122051
31
-295.0165
0
LINE
8
0
10
27.577717
20
-26.122051
30
-295.0165
11
39.835037
21
-17.22503
31
-343.28445
0
LINE
8
0
10
39.835037
20
-17.22503
30
-343.28445
11
76.59442
21
-51.614006
31
-338.00146
0
LINE
8
0
10
76.59442
20
-51.614006
30
-338.00146
11
62.667347
21
-55.818596
31
-289.51248
0
LINE
8
0
10
62.667347
20
-55.818596
30
-289.51248
11
28.13952
21
-19.98107
31
-298.61487
0
LINE
8
0
10
28.13952
20
-19.98107
30
-298.61487
11
48.33974
21
-15.240845
31
-344.75333
0
LINE
8
0
10
48.33974
20
-15.240845
30
-344.75333
11
84.515396
21
-47.336906
31
-329.81296
0
LINE
8
0
10
84.515396
20
-47.336906
30
-329.81296
11
62.303703
21
-47.741383
31
-284.32904
0
LINE
8
0
10
62.303703
20
-47.741383
30
-284.32904
11
29.123001
21
-14.24701
31
-302.67346
0
LINE
8
0
10
29.123001
20
-14.24701
30
-302.67346
11
57.260654
21
-12.595955
31
-344.68472
0
LINE
8
0
10
57.260654
20
-12.595955
30
-344.68472
11
90.76135
21
-42.056427
31
-320.76022
0
LINE
8
0
10
90.76135
20
-42.056427
30
-320.76022
11
60.521965
21
-39.763023
31
-280.23596
0
LINE
8
0
10
60.521965
20
-39.763023
30
-280.23596
11
30.733885
21
-8.8025
31
-306.94476
0
LINE
8
0
10
30.733885
20
-8.8025
30
-306.94476
11
66.25545
21
-9.178101
31
-342.96558
0
LINE
8
0
10
66.25545
20
-9.178101
30
-342.96558
11
95.08833
21
-36.015938
31
-311.16647
0
LINE
8
0
10
95.08833
20
-36.015938
30
-311.16647
11
57.622814
21
-32.077522
31
-277.3666
0
LINE
8
0
10
57.622814
20
-32.077522
30
-277.3666
11
33.097443
21
-3.4971423
31
-311.14075
0
LINE
8
0
10
33.097443
20
-3.4971423
30
-311.14075
11
74.93729
21
-4.9424667
31
-339.55084
0
LINE
8
0
10
74.93729
20
-4.9424667
30
-339.55084
11
97.352036
21
-29.497787
31
-301.37158
0
LINE
8
0
10
97.352036
20
-29.497787
30
-301.37158
11
53.94254
21
-24.808098
31
-275.78278
0
LINE
8
0
10
53.94254
20
-24.808098
30
-275.78278
11
36.24804
21
1.8426914
31
-314.96985
0
LINE
8
0
10
36.24804
20
1.8426914
30
-314.96985
11
82.90286
21
0.08098793
31
-334.47125
0
LINE
8
0
10
82.90286
20
0.08098793
30
-334.47125
11
97.51451
21
-22.793184
31
-291.73224
0
LINE
8
0
10
97.51451
20
-22.793184
30
-291.73224
11
49.834713
21
-18.007435
31
-275.47412
0
LINE
8
0
10
49.834713
20
-18.007435
30
-275.47412
11
40.125267
21
7.384859
31
-318.13647
0
LINE
8
0
10
40.125267
20
7.384859
30
-318.13647
11
89.76062
21
5.7879333
31
-327.83466
0
LINE
8
0
10
89.76062
20
5.7879333
30
-327.83466
11
95.64842
21
-16.182076
31
-282.6014
0
LINE
8
0
10
95.64842
20
-16.182076
30
-282.6014
11
45.640835
21
-11.65886
31
-276.35718
0
LINE
8
0
10
45.640835
20
-11.65886
30
-276.35718
11
44.575344
21
13.272957
31
-320.3633
0
LINE
8
0
10
44.575344
20
13.272957
30
-320.3633
11
95.15959
21
12.0049715
31
-319.82233
0
LINE
8
0
10
95.15959
20
12.0049715
30
-319.82233
11
91.925
21
-9.914593
31
-274.30035
0
LINE
8
0
10
91.925
20
-9.914593
30
-274.30035
11
41.662945
21
-5.6834154
31
-278.28125
0
LINE
8
0
10
41.662945
20
-5.6834154
30
-278.28125
11
49.35909
21
19.606937
31
-321.4091
0
LINE
8
0
10
49.35909
20
19.606937
30
-321.4091
11
98.80698
21
18.50527
31
-310.68835
0
LINE
8
0
10
98.80698
20
18.50527
30
-310.68835
11
86.60271
21
-4.1904087
31
-267.1095
0
LINE
8
0
10
86.60271
20
-4.1904087
30
-267.1095
11
38.14652
21
0.043624878
31
-281.03146
0
LINE
8
0
10
38.14652
20
0.043624878
30
-281.03146
11
54.189465
21
26.43541
31
-321.09558
0
LINE
8
0
10
54.189465
20
26.43541
30
-321.09558
11
100.503174
21
25.017868
31
-300.73465
0
LINE
8
0
10
100.503174
20
25.017868
30
-300.73465
11
80.00647
21
0.85419273
31
-261.25195
0
LINE
8
0
10
80.00647
20
0.85419273
30
-261.25195
11
35.254974
21
5.679244
31
-284.34753
0
LINE
8
0
10
35.254974
20
5.679244
30
-284.34753
11
58.72244
21
33.733047
31
-319.29782
0
LINE
8
0
10
58.72244
20
33.733047
30
-319.29782
11
100.141815
21
31.254639
31
-290.3079
0
LINE
8
0
10
100.141815
20
31.254639
30
-290.3079
11
72.50101
21
5.1545067
31
-256.88187
0
LINE
8
0
10
72.50101
20
5.1545067
30
-256.88187
11
33.0615
21
11.3941555
31
-287.94333
0
LINE
8
0
10
33.0615
20
11.3941555
30
-287.94333
11
62.608017
21
41.40651
31
-315.96985
0
LINE
8
0
10
62.608017
20
41.40651
30
-315.96985
11
97.72243
21
36.931824
31
-279.78305
0
LINE
8
0
10
97.72243
20
36.931824
30
-279.78305
11
64.472046
21
8.721996
31
-254.07817
0
LINE
8
0
10
64.472046
20
8.721996
30
-254.07817
11
31.55028
21
17.344202
31
-291.5091
0
LINE
8
0
10
31.55028
20
17.344202
30
-291.5091
11
65.509186
21
49.293133
31
-311.1418
0
LINE
8
0
10
65.509186
20
49.293133
30
-311.1418
11
93.35214
21
41.78806
31
-269.53442
0
LINE
8
0
10
93.35214
20
41.78806
30
-269.53442
11
56.28637
21
11.636615
31
-252.84
0
LINE
8
0
10
56.28637
20
11.636615
30
-252.84
11
30.613537
21
23.653568
31
-294.73907
0
LINE
8
0
10
30.613537
20
23.653568
30
-294.73907
11
67.12065
21
57.166256
31
-304.92392
0
LINE
8
0
10
67.12065
20
57.166256
30
-304.92392
11
87.234985
21
45.60813
31
-259.9242
0
LINE
8
0
10
87.234985
20
45.60813
30
-259.9242
11
48.275875
21
14.039746
31
-253.08923
0
LINE
8
0
10
48.275875
20
14.039746
30
-253.08923
11
30.067047
21
30.405432
31
-297.3599
0
LINE
8
0
10
30.067047
20
30.405432
30
-297.3599
11
67.21352
21
64.75654
31
-297.4937
0
LINE
8
0
10
67.21352
20
64.75654
30
-297.4937
11
79.658066
21
48.23903
31
-251.28241
0
LINE
8
0
10
79.658066
20
48.23903
30
-251.28241
11
40.705948
21
16.116623
31
-254.68066
0
LINE
8
0
10
40.705948
20
16.116623
30
-254.68066
11
29.662918
21
37.60989
31
-299.12402
0
LINE
8
0
10
29.662918
20
37.60989
30
-299.12402
11
65.6301
21
71.76133
31
-289.09665
0
LINE
8
0
10
65.6301
20
71.76133
30
-289.09665
11
70.96968
21
49.60121
31
-243.88974
0
LINE
8
0
10
70.96968
20
49.60121
30
-243.88974
11
33.76813
21
18.08036
31
-257.40842
0
LINE
8
0
10
33.76813
20
18.08036
30
-257.40842
11
29.118332
21
45.216076
31
-299.84662
0
LINE
8
0
10
29.118332
20
45.216076
30
-299.84662
11
62.31141
21
77.871574
31
-280.02924
0
LINE
8
0
10
62.31141
20
77.871574
30
-280.02924
11
61.558414
21
49.701466
31
-237.96881
0
LINE
8
0
10
61.558414
20
49.701466
30
-237.96881
11
27.566278
21
20.14925
31
-261.01837
0
LINE
8
0
10
27.566278
20
20.14925
30
-261.01837
11
28.135643
21
53.095276
31
-299.4009
0
LINE
8
0
10
28.135643
20
53.095276
30
-299.4009
11
57.30145
21
82.794556
31
-270.62292
0
LINE
8
0
10
57.30145
20
82.794556
30
-270.62292
11
51.820477
21
48.62395
31
-233.66794
0
LINE
8
0
10
51.820477
20
48.62395
30
-233.66794
11
22.111624
21
22.523188
31
-265.2239
0
LINE
8
0
10
22.111624
20
22.523188
30
-265.2239
11
26.427206
21
61.042713
31
-297.73004
0
LINE
8
0
10
26.427206
20
61.042713
30
-297.73004
11
50.74882
21
86.27404
31
-261.21365
0
LINE
8
0
10
50.74882
20
86.27404
30
-261.21365
11
42.136894
21
46.53196
31
-231.0609
0
LINE
8
0
10
42.136894
20
46.53196
30
-231.0609
11
17.32258
21
25.365265
31
-269.73828
0
LINE
8
0
10
17.32258
20
25.365265
30
-269.73828
11
23.750992
21
68.80662
31
-294.8504
0
LINE
8
0
10
23.750992
20
68.80662
30
-294.8504
11
42.886555
21
88.11297
31
-252.15387
0
LINE
8
0
10
42.886555
20
88.11297
30
-252.15387
11
32.841747
21
43.64527
31
-230.14651
0
LINE
8
0
10
32.841747
20
43.64527
30
-230.14651
11
13.04605
21
28.78031
31
-274.26636
0
LINE
8
0
10
13.04605
20
28.78031
30
-274.26636
11
19.920921
21
76.07904
31
-290.84695
0
LINE
8
0
10
19.920921
20
76.07904
30
-290.84695
11
34.027958
21
88.187874
31
-243.76532
0
LINE
8
0
10
34.027958
20
88.187874
30
-243.76532
11
24.210478
21
40.241432
31
-230.84998
0
LINE
8
0
10
24.210478
20
40.241432
30
-230.84998
11
9.066675
21
32.803
31
-278.5413
0
LINE
8
0
10
9.066675
20
32.803
30
-278.5413
11
14.832329
21
82.5293
31
-285.8696
0
LINE
8
0
10
14.832329
20
82.5293
30
-285.8696
11
24.540106
21
86.46529
31
-236.34244
0
LINE
8
0
10
24.540106
20
86.46529
30
-236.34244
11
16.43324
21
36.616055
31
-233.03362
0
LINE
8
0
10
16.43324
20
36.616055
30
-233.03362
11
5.131589
21
37.392685
31
-282.3359
0
LINE
8
0
10
5.131589
20
37.392685
30
-282.3359
11
8.47401
21
87.8285
31
-280.1191
0
LINE
8
0
10
8.47401
20
87.8285
30
-280.1191
11
14.820471
21
83.00166
31
-230.12526
0
LINE
8
0
10
14.820471
20
83.00166
30
-230.12526
11
9.6101675
21
33.068733
31
-236.50702
0
LINE
8
0
10
9.6101675
20
33.068733
30
-236.50702
11
0.97639513
21
42.424877
31
-285.46536
0
LINE
8
0
10
0.97639513
20
42.424877
30
-285.46536
11
0.93101
21
91.666916
31
-273.83817
0
LINE
8
0
10
0.93101
20
91.666916
30
-273.83817
11
5.269159
21
77.94375
31
-225.29633
0
LINE
8
0
10
5.269159
20
77.94375
30
-225.29633
11
3.7471075
21
29.876497
31
-241.04309
0
LINE
8
0
10
3.7471075
20
29.876497
30
-241.04309
11
-3.6502843
21
47.702034
31
-287.80313
0
LINE
8
0
10
-3.6502843
20
47.702034
30
-287.80313
11
-7.616617
21
93.78419
31
-267.28854
0
LINE
8
0
10
-7.616617
20
93.78419
30
-267.28854
11
-3.7390916
21
71.52976
31
-221.97742
0
LINE
8
0
10
-3.7390916
20
71.52976
30
-221.97742
11
-1.2383962
21
27.275276
31
-246.38596
0
LINE
8
0
10
-1.2383962
20
27.275276
30
-246.38596
11
-8.960676
21
52.95784
31
-289.27988
0
LINE
8
0
10
-8.960676
20
52.95784
30
-289.27988
11
-16.904789
21
93.98327
31
-260.74347
0
LINE
8
0
10
-16.904789
20
93.98327
30
-260.74347
11
-11.8788185
21
64.056435
31
-220.21768
0
LINE
8
0
10
-11.8788185
20
64.056435
30
-220.21768
11
-5.507092
21
25.433804
31
-252.27982
0
LINE
8
0
10
-5.507092
20
25.433804
30
-252.27982
11
-15.105632
21
57.876987
31
-289.88684
0
LINE
8
0
10
-15.105632
20
57.876987
30
-289.88684
11
-26.60046
21
92.151184
31
-254.4759
0
LINE
8
0
10
-26.60046
20
92.151184
30
-254.4759
11
-18.896301
21
55.878857
31
-220.00574
0
LINE
8
0
10
-18.896301
20
55.878857
30
-220.00574
11
-9.278741
21
24.444212
31
-258.4643
0
LINE
8
0
10
-9.278741
20
24.444212
30
-258.4643
11
-22.158562
21
62.121113
31
-289.6713
0
LINE
8
0
10
-22.158562
20
62.121113
30
-289.6713
11
-36.32417
21
88.27248
31
-248.7223
0
LINE
8
0
10
-36.32417
20
88.27248
30
-248.7223
11
-24.62452
21
47.377945
31
-221.27063
0
LINE
8
0
10
-24.62452
20
47.377945
30
-221.27063
11
-12.810313
21
24.311253
31
-264.72125
0
LINE
8
0
10
-12.810313
20
24.311253
30
-264.72125
11
-30.102142
21
65.34496
31
-288.72766
0
LINE
8
0
10
-30.102142
20
65.34496
30
-288.72766
11
-45.674953
21
82.431564
31
-243.69818
0
LINE
8
0
10
-45.674953
20
82.431564
30
-243.69818
11
-28.99191
21
38.935265
31
-223.89258
0
LINE
8
0
10
-28.99191
20
38.935265
30
-223.89258
11
-16.370264
21
24.949516
31
-270.8433
0
LINE
8
0
10
-16.370264
20
24.949516
30
-270.8433
11
-38.828495
21
67.230995
31
-287.18594
0
LINE
8
0
10
-38.828495
20
67.230995
30
-287.18594
11
-54.258392
21
74.81436
31
-239.57343
0
LINE
8
0
10
-54.258392
20
74.81436
30
-239.57343
11
-32.027256
21
30.91454
31
-227.71149
0
LINE
8
0
10
-32.027256
20
30.91454
30
-227.71149
11
-20.213112
21
26.190517
31
-276.67477
0
LINE
8
0
10
-20.213112
20
26.190517
30
-276.67477
11
-48.138405
21
67.50397
31
-285.2011
0
LINE
8
0
10
-48.138405
20
67.50397
30
-285.2011
11
-61.71397
21
65.69747
31
-236.46658
0
LINE
8
0
10
-61.71397
20
65.69747
30
-236.46658
11
-33.84778
21
23.625034
31
-232.54506
0
LINE
8
0
10
-33.84778
20
23.625034
30
-232.54506
11
-24.552166
21
27.7871
31
-282.09482
0
LINE
8
0
10
-24.552166
20
27.7871
30
-282.09482
11
-57.750435
21
65.95543
31
-282.94342
0
LINE
8
0
10
-57.750435
20
65.95543
30
-282.94342
11
-67.7384
21
55.43019
31
-234.44212
0
LINE
8
0
10
-67.7384
20
55.43019
30
-234.44212
11
-34.656643
21
17.3147
31
-238.19127
0
LINE
8
0
10
-34.656643
20
17.3147
30
-238.19127
11
-29.542946
21
29.443869
31
-287.03833
0
LINE
8
0
10
-29.542946
20
29.443869
30
-287.03833
11
-67.32425
21
62.468456
31
-280.57913
0
LINE
8
0
10
-67.32425
20
62.468456
30
-280.57913
11
-72.10794
21
44.42135
31
-233.52016
0
LINE
8
0
10
-72.10794
20
44.42135
30
-233.52016
11
-34.705524
21
12.137071
31
-244.46312
0
LINE
8
0
10
-34.705524
20
12.137071
30
-244.46312
11
-35.258656
21
30.821503
31
-291.47067
0
LINE
8
0
10
-35.258656
20
30.821503
30
-291.47067
11
-76.4798
21
57.02385
31
-278.2613
0
LINE
8
0
10
-76.4798
20
57.02385
30
-278.2613
11
-74.69147
21
33.108383
31
-233.67331
0
LINE
8
0
10
-74.69147
20
33.108383
30
-233.67331
11
-34.29537
21
8.159897
31
-251.17007
0
LINE
8
0
10
-34.29537
20
8.159897
30
-251.17007
11
-41.684963
21
31.574661
31
-295.398
0
LINE
8
0
10
-41.684963
20
31.574661
30
-295.398
11
-84.819244
21
49.706936
31
-276.1262
0
LINE
8
0
10
-84.819244
20
49.706936
30
-276.1262
11
-75.463425
21
21.938004
31
-234.83958
0
LINE
8
0
10
-75.463425
20
21.938004
30
-234.83958
11
-33.731453
21
5.3491564
31
-258.15158
0
LINE
8
0
10
-33.731453
20
5.3491564
30
-258.15158
11
-48.720715
21
31.378057
31
-298.85535
0
LINE
8
0
10
-48.720715
20
31.378057
30
-298.85535
11
-91.96286
21
40.707264
31
-274.27402
0
LINE
8
0
10
-91.96286
20
40.707264
30
-274.27402
11
-74.49759
21
11.329669
31
-236.92589
0
LINE
8
0
10
-74.49759
20
11.329669
30
-236.92589
11
-33.3082
21
3.5760608
31
-265.26416
0
LINE
8
0
10
-33.3082
20
3.5760608
30
-265.26416
11
-56.167614
21
29.940197
31
-301.89117
0
LINE
8
0
10
-56.167614
20
29.940197
30
-301.89117
11
-97.56659
21
30.312403
31
-272.78302
0
LINE
8
0
10
-97.56659
20
30.312403
30
-272.78302
11
-71.962326
21
1.655488
31
-239.82257
0
LINE
8
0
10
-71.962326
20
1.655488
30
-239.82257
11
-33.27387
21
2.6313982
31
-272.40698
0
LINE
8
0
10
-33.27387
20
2.6313982
30
-272.40698
11
-63.756393
21
27.039818
31
-304.56458
0
LINE
8
0
10
-63.756393
20
27.039818
30
-304.56458
11
-101.35777
21
18.884459
31
-271.68042
0
LINE
8
0
10
-101.35777
20
18.884459
30
-271.68042
11
-68.115814
21
-6.779957
31
-243.41316
0
LINE
8
0
10
-68.115814
20
-6.779957
30
-243.41316
11
-33.81862
21
2.2354968
31
-279.4947
0
LINE
8
0
10
-33.81862
20
2.2354968
30
-279.4947
11
-71.159225
21
22.538157
31
-306.93167
0
LINE
8
0
10
-71.159225
20
22.538157
30
-306.93167
11
-103.14366
21
6.848379
31
-270.97342
0
LINE
8
0
10
-103.14366
20
6.848379
30
-270.97342
11
-63.26619
21
-13.76507
31
-247.58391
0
LINE
8
0
10
-63.26619
20
-13.76507
30
-247.58391
11
-35.051117
21
2.067316
31
-286.47748
0
LINE
8
0
10
-35.051117
20
2.067316
30
-286.47748
11
-78.00539
21
16.392662
31
-309.03867
0
LINE
8
0
10
-78.00539
20
16.392662
30
-309.03867
11
-102.83212
21
-5.3348517
31
-270.64273
0
LINE
8
0
10
-102.83212
20
-5.3348517
30
-270.64273
11
-57.76501
21
-19.184101
31
-252.23279
0
LINE
8
0
10
-57.76501
20
-19.184101
30
-252.23279
11
-36.98799
21
1.7803993
31
-293.31476
0
LINE
8
0
10
-36.98799
20
1.7803993
30
-293.31476
11
-83.920074
21
8.665736
31
-310.91446
0
LINE
8
0
10
-83.920074
20
8.665736
30
-310.91446
11
-100.440186
21
-17.195663
31
-270.65103
0
LINE
8
0
10
-100.440186
20
-17.195663
30
-270.65103
11
-51.980633
21
-23.027033
31
-257.27213
0
LINE
8
0
10
-51.980633
20
-23.027033
30
-257.27213
11
-39.558483
21
1.0445752
31
-299.99695
0
LINE
8
0
10
-39.558483
20
1.0445752
30
-299.99695
11
-88.54201
21
-0.4764166
31
-312.56766
0
LINE
8
0
10
-88.54201
20
-0.4764166
30
-312.56766
11
-96.08594
21
-28.290588
31
-270.94006
0
LINE
8
0
10
-96.08594
20
-28.290588
30
-270.94006
11
-46.250893
21
-25.382212
31
-262.6395
0
LINE
8
0
10
-46.250893
20
-25.382212
30
-262.6395
11
-42.596264
21
-0.44718933
31
-306.5014
0
LINE
8
0
10
-42.596264
20
-0.44718933
30
-306.5014
11
-91.559555
21
-10.774529
31
-313.98242
0
LINE
8
0
10
-91.559555
20
-10.774529
30
-313.98242
11
-89.991776
21
-38.21609
31
-271.46155
0
LINE
8
0
10
-89.991776
20
-38.21609
30
-271.46155
11
-40.884174
21
-26.432812
31
-268.28748
0
LINE
8
0
10
-40.884174
20
-26.432812
30
-268.28748
11
-45.86282
21
-2.9406624
31
-312.81216
0
LINE
8
0
10
-45.86282
20
-2.9406624
30
-312.81216
11
-92.725006
21
-21.887268
31
-315.1235
0
LINE
8
0
10
-92.725006
20
-21.887268
30
-315.1235
11
-82.46112
21
-46.64196
31
-272.16895
0
LINE
8
0
10
-82.46112
20
-46.64196
30
-272.16895
11
-36.115383
21
-26.433363
31
-274.19168
0
LINE
8
0
10
-36.115383
20
-26.433363
30
-274.19168
11
-49.054596
21
-6.607401
31
-318.89606
0
LINE
8
0
10
-49.054596
20
-6.607401
30
-318.89606
11
-91.87773
21
-33.410038
31
-315.94128
0
LINE
8
0
10
-91.87773
20
-33.410038
30
-315.94128
11
-73.855515
21
-53.325794
31
-273.02795
0
LINE
8
0
10
-73.855515
20
-53.325794
30
-273.02795
11
-32.102398
21
-25.696842
31
-280.3361
0
LINE
8
0
10
-32.102398
20
-25.696842
30
-280.3361
11
-51.835938
21
-11.527498
31
-324.70746
0
LINE
8
0
10
-51.835938
20
-11.527498
30
-324.70746
11
-88.9599
21
-44.899166
31
-316.37912
0
LINE
8
0
10
-88.9599
20
-44.899166
30
-316.37912
11
-64.57846
21
-58.12403
31
-274.02838
0
LINE
8
0
10
-64.57846
20
-58.12403
30
-274.02838
11
-28.906626
21
-24.56198
31
-286.7147
0
LINE
8
0
10
-28.906626
20
-24.56198
30
-286.7147
11
-53.86302
21
-17.685366
31
-330.1801
0
LINE
8
0
10
-53.86302
20
-17.685366
30
-330.1801
11
-84.02515
21
-55.907734
31
-316.37213
0
LINE
8
0
10
-84.02515
20
-55.907734
30
-316.37213
11
-55.037575
21
-60.997112
31
-275.18042
0
LINE
8
0
10
-55.037575
20
-60.997112
30
-275.18042
11
-26.494581
21
-23.372105
31
-293.31848
0
LINE
8
0
10
-26.494581
20
-23.372105
30
-293.31848
11
-54.79227
21
-24.957272
31
-335.218
0
LINE
8
0
10
-54.79227
20
-24.957272
30
-335.218
11
-77.23044
21
-66.00259
31
-315.8659
0
LINE
8
0
10
-77.23044
20
-66.00259
30
-315.8659
11
-45.635223
21
-62.01732
31
-276.52344
0
LINE
8
0
10
-45.635223
20
-62.01732
30
-276.52344
11
-24.741148
21
-22.447746
31
-300.1279
0
LINE
8
0
10
-24.741148
20
-22.447746
30
-300.1279
11
-54.357807
21
-33.148384
31
-339.721
0
LINE
8
0
10
-54.357807
20
-33.148384
30
-339.721
11
-68.83295
21
-74.78764
31
-314.83267
0
LINE
8
0
10
-68.83295
20
-74.78764
30
-314.83267
11
-36.70512
21
-61.3357
31
-278.10803
0
LINE
8
0
10
-36.70512
20
-61.3357
30
-278.10803
11
-23.440939
21
-22.0631
31
-307.10477
0
LINE
8
0
10
-23.440939
20
-22.0631
30
-307.10477
11
-52.32906
21
-41.962456
31
-343.55933
0
LINE
8
0
10
-52.32906
20
-41.962456
30
-343.55933
11
-59.17313
21
-81.93949
31
-313.2639
0
LINE
8
0
10
-59.17313
20
-81.93949
30
-313.2639
11
-28.534855
21
-59.200706
31
-280.00806
0
LINE
8
0
10
-28.534855
20
-59.200706
30
-280.00806
11
-22.326456
21
-22.426056
31
-314.18555
0
LINE
8
0
10
-22.326456
20
-22.426056
30
-314.18555
11
-48.579136
21
-51.054893
31
-346.6025
0
LINE
8
0
10
-48.579136
20
-51.054893
30
-346.6025
11
-48.64627
21
-87.22053
31
-311.1708
0
LINE
8
0
10
-48.64627
20
-87.22053
30
-311.1708
11
-21.315311
21
-55.91317
31
-282.29977
0
LINE
8
0
10
-21.315311
20
-55.91317
30
-282.29977
11
-21.0925
21
-23.663748
31
-321.28064
0
LINE
8
0
10
-21.0925
20
-23.663748
30
-321.28064
11
-43.07873
21
-60.041092
31
-348.72076
0
LINE
8
0
10
-43.07873
20
-60.041092
30
-348.72076
11
-37.692425
21
-90.48399
31
-308.62802
0
LINE
8
0
10
-37.692425
20
-90.48399
30
-308.62802
11
-15.137581
21
-51.796722
31
-285.06064
0
LINE
8
0
10
-15.137581
20
-51.796722
30
-285.06064
11
-19.41518
21
-25.813293
31
-328.25244
0
LINE
8
0
10
-19.41518
20
-25.813293
30
-328.25244
11
-35.905777
21
-68.52836
31
-349.79532
0
LINE
8
0
10
-35.905777
20
-68.52836
30
-349.79532
11
-26.747425
21
-91.6884
31
-305.71945
0
LINE
8
0
10
-26.747425
20
-91.6884
30
-305.71945
11
-10.002262
21
-47.208893
31
-288.35162
0
LINE
8
0
10
-10.002262
20
-47.208893
30
-288.35162
11
-16.9943
21
-28.822231
31
-334.95648
0
LINE
8
0
10
-16.9943
20
-28.822231
30
-334.95648
11
-27.241266
21
-76.12567
31
-349.73462
0
LINE
8
0
10
-27.241266
20
-76.12567
30
-349.73462
11
-16.229494
21
-90.88993
31
-302.57614
0
LINE
8
0
10
-16.229494
20
-90.88993
30
-302.57614
11
-5.807968
21
-42.47675
31
-292.2128
0
LINE
8
0
10
-5.807968
20
-42.47675
30
-292.2128
11
-13.565159
21
-32.552025
31
-341.20584
0
LINE
8
0
10
-13.565159
20
-32.552025
30
-341.20584
11
-17.36437
21
-82.49314
31
-348.4783
0
LINE
8
0
10
-17.36437
20
-82.49314
30
-348.4783
11
-6.5102406
21
-88.242805
31
-299.36508
0
LINE
8
0
10
-6.5102406
20
-88.242805
30
-299.36508
11
-2.3708615
21
-37.8933
31
-296.65073
0
LINE
8
0
10
-2.3708615
20
-37.8933
30
-296.65073
11
-8.929936
21
-36.790707
31
-346.79855
0
LINE
8
0
10
-8.929936
20
-36.790707
30
-346.79855
11
-6.632533
21
-87.347435
31
-346.00998
0
LINE
8
0
10
-6.632533
20
-87.347435
30
-346.00998
11
2.115644
21
-83.97455
31
-296.26273
0
LINE
8
0
10
2.115644
20
-83.97455
30
-296.26273
11
0.5584058
21
-33.69155
31
-301.63483
0
LINE
8
0
10
0.5584058
20
-33.69155
30
-301.63483
11
-2.975329
21
-41.26987
31
-351.52374
0
LINE
8
0
10
-2.975329
20
-41.26987
30
-351.52374
11
4.5391197
21
-90.480705
31
-342.36694
0
LINE
8
0
10
4.5391197
20
-90.480705
30
-342.36694
11
9.441919
21
-78.372765
31
-293.45886
0
LINE
8
0
10
9.441919
20
-78.372765
30
-293.45886
11
3.274001
21
-30.043104
31
-307.07544
0
LINE
8
0
10
3.274001
20
-30.043104
30
-307.07544
11
4.3152103
21
-45.68963
31
-355.17572
0
LINE
8
0
10
4.3152103
20
-45.68963
30
-355.17572
11
15.706432
21
-91.781906
31
-337.6297
0
LINE
8
0
10
15.706432
20
-91.781906
30
-337.6297
11
15.363195
21
-71.76124
31
-291.1401
0
LINE
8
0
10
15.363195
20
-71.76124
30
-291.1401
11
6.0836935
21
-27.023886
31
-312.85556
0
LINE
8
0
10
6.0836935
20
-27.023886
30
-312.85556
11
12.85351
21
-49.727226
31
-357.5594
0
LINE
8
0
10
12.85351
20
-49.727226
30
-357.5594
11
26.421846
21
-91.227066
31
-331.93854
0
LINE
8
0
10
26.421846
20
-91.227066
30
-331.93854
11
19.878235
21
-64.47572
31
-289.47638
0
LINE
8
0
10
19.878235
20
-64.47572
30
-289.47638
11
9.286299
21
-24.63837
31
-318.79916
0
LINE
8
0
10
9.286299
20
-24.63837
30
-318.79916
11
22.451195
21
-53.08332
31
-358.5169
0
LINE
8
0
10
22.451195
20
-53.08332
30
-358.5169
11
36.263283
21
-88.88415
31
-325.49335
0
LINE
8
0
10
36.263283
20
-88.88415
30
-325.49335
11
23.084032
21
-56.83595
31
-288.6075
0
LINE
8
0
10
23.084032
20
-56.83595
30
-288.6075
11
13.142433
21
-22.811476
31
-324.6934
0
LINE
8
0
10
13.142433
20
-22.811476
30
-324.6934
11
32.828125
21
-55.4905
31
-357.93137
0
LINE
8
0
10
32.828125
20
-55.4905
30
-357.93137
11
44.864105
21
-84.90938
31
-318.52505
0
LINE
8
0
10
44.864105
20
-84.90938
30
-318.52505
11
25.17171
21
-49.14353
31
-288.63132
0
LINE
8
0
10
25.17171
20
-49.14353
30
-288.63132
11
17.85123
21
-21.402008
31
-330.29413
0
LINE
8
0
10
17.85123
20
-21.402008
30
-330.29413
11
43.62714
21
-56.73302
31
-355.74152
0
LINE
8
0
10
43.62714
20
-56.73302
30
-355.74152
11
51.933525
21
-79.52751
31
-311.30096
0
LINE
8
0
10
51.933525
20
-79.52751
30
-311.30096
11
26.392838
21
-41.623924
31
-289.59323
0
LINE
8
0
10
26.392838
20
-41.623924
30
-289.59323
11
23.532951
21
-20.219734
31
-335.342
0
LINE
8
0
10
23.532951
20
-20.219734
30
-335.342
11
54.44388
21
-56.677227
31
-351.94632
0
LINE
8
0
10
54.44388
20
-56.677227
30
-351.94632
11
57.274666
21
-73.014755
31
-304.10742
0
LINE
8
0
10
57.274666
20
-73.014755
30
-304.10742
11
27.051958
21
-34.452747
31
-291.4798
0
LINE
8
0
10
27.051958
20
-34.452747
30
-291.4798
11
30.210289
21
-19.041534
31
-339.56104
0
LINE
8
0
10
30.210289
20
-19.041534
30
-339.56104
11
64.84367
21
-55.261345
31
-346.61194
0
LINE
8
0
10
64.84367
20
-55.261345
30
-346.61194
11
60.79515
21
-65.67698
31
-297.23438
0
LINE
8
0
10
60.79515
20
-65.67698
30
-297.23438
11
27.472227
21
-27.728504
31
-294.21518
0
LINE
8
0
10
27.472227
20
-27.728504
30
-294.21518
11
37.810543
21
-17.638071
31
-342.69852
0
LINE
8
0
10
37.810543
20
-17.638071
30
-342.69852
11
74.389496
21
-52.502693
31
-339.8802
0
LINE
8
0
10
74.389496
20
-52.502693
30
-339.8802
11
62.50721
21
-57.824783
31
-290.9564
0
LINE
8
0
10
62.50721
20
-57.824783
30
-290.9564
11
27.969435
21
-21.475454
31
-297.6622
0
LINE
8
0
10
27.969435
20
-21.475454
30
-297.6622
11
46.163094
21
-15.793369
31
-344.52484
0
LINE
8
0
10
46.163094
20
-15.793369
30
-344.52484
11
82.6808
21
-48.50917
31
-331.95203
0
LINE
8
0
10
82.6808
20
-48.50917
30
-331.95203
11
62.53747
21
-49.76
31
-285.52908
0
LINE
8
0
10
62.53747
20
-49.76
30
-285.52908
11
28.825323
21
-15.648796
31
-301.62726
0
LINE
8
0
10
28.825323
20
-15.648796
30
-301.62726
11
55.005985
21
-13.324738
31
-344.85208
0
LINE
8
0
10
55.005985
20
-13.324738
30
-344.85208
11
89.37181
21
-43.45758
31
-323.08847
0
LINE
8
0
10
89.37181
20
-43.45758
30
-323.08847
11
61.085747
21
-41.737064
31
-281.14874
0
LINE
8
0
10
61.085747
20
-41.737064
30
-281.14874
11
30.263935
21
-10.143816
31
-305.8732
0
LINE
8
0
10
30.263935
20
-10.143816
30
-305.8732
11
64.017136
21
-10.107166
31
-343.55334
0
LINE
8
0
10
64.017136
20
-10.107166
30
-343.55334
11
94.19571
21
-37.583744
31
-313.5934
0
LINE
8
0
10
94.19571
20
-37.583744
30
-313.5934
11
58.435936
21
-33.964237
31
-277.9647
0
LINE
8
0
10
58.435936
20
-33.964237
30
-277.9647
11
32.43294
21
-4.819089
31
-310.11658
0
LINE
8
0
10
32.43294
20
-4.819089
30
-310.11658
11
72.818695
21
-6.0779037
31
-340.56308
0
LINE
8
0
10
72.818695
20
-6.0779037
30
-340.56308
11
96.98326
21
-31.15649
31
-303.81903
0
LINE
8
0
10
96.98326
20
-31.15649
30
-303.81903
11
54.91412
21
-26.581192
31
-276.05795
0
LINE
8
0
10
54.91412
20
-26.581192
30
-276.05795
11
35.389324
21
0.4960022
31
-314.06586
0
LINE
8
0
10
35.389324
20
0.4960022
30
-314.06586
11
81.00099
21
-1.2444792
31
-335.8925
0
LINE
8
0
10
81.00099
20
-1.2444792
30
-335.8925
11
97.66736
21
-24.472061
31
-294.10516
0
LINE
8
0
10
97.66736
20
-24.472061
30
-294.10516
11
50.88395
21
-19.664085
31
-275.43454
0
LINE
8
0
10
50.88395
20
-19.664085
30
-275.43454
11
39.095364
21
5.972308
31
-317.42352
0
LINE
8
0
10
39.095364
20
5.972308
30
-317.42352
11
88.170685
21
4.305297
31
-329.63077
0
LINE
8
0
10
88.170685
20
4.305297
30
-329.63077
11
96.298355
21
-17.811176
31
-284.81952
0
LINE
8
0
10
96.298355
20
-17.811176
30
-284.81952
11
46.681107
21
-13.207579
31
-276.0311
0
LINE
8
0
10
46.681107
20
-13.207579
30
-276.0311
11
43.419975
21
11.761753
31
-319.9078
0
LINE
8
0
10
43.419975
20
11.761753
30
-319.9078
11
93.966156
21
10.413439
31
-321.9397
0
LINE
8
0
10
93.966156
20
10.413439
30
-321.9397
11
93.018326
21
-11.436846
31
-276.28256
0
LINE
8
0
10
93.018326
20
-11.436846
30
-276.28256
11
42.621807
21
-7.148034
31
-277.71414
0
LINE
8
0
10
42.621807
20
-7.148034
30
-277.71414
11
48.144764
21
17.977093
31
-321.26767
0
LINE
8
0
10
48.144764
20
17.977093
30
-321.26767
11
98.07422
21
16.866447
31
-313.05814
0
LINE
8
0
10
98.07422
20
16.866447
30
-313.05814
11
88.06769
21
-5.5614367
31
-268.79056
0
LINE
8
0
10
88.06769
20
-5.5614367
30
-268.79056
11
38.97179
21
-1.3729773
31
-280.2803
0
LINE
8
0
10
38.97179
20
-1.3729773
30
-280.2803
11
52.996872
21
24.6825
31
-321.30994
0
LINE
8
0
10
52.996872
20
24.6825
30
-321.30994
11
100.26996
21
23.403824
31
-303.28094
0
LINE
8
0
10
100.26996
20
23.403824
30
-303.28094
11
81.752914
21
-0.33924294
31
-262.5809
0
LINE
8
0
10
81.752914
20
-0.33924294
30
-262.5809
11
35.912987
21
4.2705326
31
-283.4827
0
LINE
8
0
10
35.912987
20
4.2705326
30
-283.4827
11
57.636665
21
31.868694
31
-319.89026
0
LINE
8
0
10
57.636665
20
31.868694
30
-319.89026
11
100.42668
21
29.737604
31
-292.93958
0
LINE
8
0
10
100.42668
20
29.737604
30
-292.93958
11
74.44054
21
4.149521
31
-257.82916
0
LINE
8
0
10
74.44054
20
4.149521
30
-257.82916
11
33.54343
21
9.949703
31
-287.03607
0
LINE
8
0
10
33.54343
20
9.949703
30
-287.03607
11
61.71684
21
39.460907
31
-316.94492
0
LINE
8
0
10
61.71684
20
39.460907
30
-316.94492
11
98.515945
21
35.580734
31
-282.40433
0
LINE
8
0
10
98.515945
20
35.580734
30
-282.40433
11
66.5074
21
7.895443
31
-254.63104
0
LINE
8
0
10
66.5074
20
7.895443
30
-254.63104
11
31.86852
21
15.826464
31
-290.63635
0
LINE
8
0
10
31.86852
20
15.826464
30
-290.63635
11
64.896576
21
47.31401
31
-312.484
0
LINE
8
0
10
64.896576
20
47.31401
30
-312.484
11
94.61812
21
40.664593
31
-272.05176
0
LINE
8
0
10
94.61812
20
40.664593
30
-272.05176
11
58.328068
21
10.962179
31
-253.0059
0
LINE
8
0
10
58.328068
20
10.962179
30
-253.0059
11
30.802834
21
22.03711
31
-293.97858
0
LINE
8
0
10
30.802834
20
22.03711
30
-293.97858
11
66.85614
21
55.21463
31
-306.59814
0
LINE
8
0
10
66.85614
20
55.21463
30
-306.59814
11
88.913956
21
44.760788
31
-262.24936
0
LINE
8
0
10
88.913956
20
44.760788
30
-262.24936
11
50.244587
21
13.476821
31
-252.89548
0
LINE
8
0
10
50.244587
20
13.476821
30
-252.89548
11
30.179434
21
28.673449
31
-296.77545
0
LINE
8
0
10
30.179434
20
28.673449
30
-296.77545
11
67.34543
21
62.902573
31
-299.45047
0
LINE
8
0
10
67.34543
20
62.902573
30
-299.45047
11
81.66995
21
47.696583
31
-253.33397
0
LINE
8
0
10
81.66995
20
47.696583
30
-253.33397
11
42.54617
21
15.616889
31
-254.1664
0
LINE
8
0
10
42.54617
20
15.616889
30
-254.1664
11
29.76567
21
35.767868
31
-298.77435
0
LINE
8
0
10
29.76567
20
35.767868
30
-298.77435
11
66.18594
21
70.08144
31
-291.27353
0
LINE
8
0
10
66.18594
20
70.08144
30
-291.27353
11
73.224686
21
49.37988
31
-245.60692
0
LINE
8
0
10
73.224686
20
49.37988
30
-245.60692
11
35.43531
21
17.58786
31
-256.6341
0
LINE
8
0
10
35.43531
20
17.58786
30
-256.6341
11
29.284254
21
43.283268
31
-299.77197
0
LINE
8
0
10
29.284254
20
43.283268
30
-299.77197
11
63.301044
21
76.44407
31
-282.34467
0
LINE
8
0
10
63.301044
20
76.44407
30
-282.34467
11
63.957016
21
49.791084
31
-239.30157
0
LINE
8
0
10
63.957016
20
49.791084
30
-239.30157
11
29.046124
21
19.610718
31
-260.04733
0
LINE
8
0
10
29.046124
20
19.610718
30
-260.04733
11
28.439964
21
51.112617
31
-299.6269
0
LINE
8
0
10
28.439964
20
51.112617
30
-299.6269
11
58.7058
21
81.6899
31
-272.98828
0
LINE
8
0
10
58.7058
20
81.6899
30
-272.98828
11
54.264046
21
48.99562
31
-234.58588
0
LINE
8
0
10
54.264046
20
48.99562
30
-234.58588
11
23.408306
21
21.89144
31
-264.13242
0
LINE
8
0
10
23.408306
20
21.89144
30
-264.13242
11
26.93842
21
59.066235
31
-298.26285
0
LINE
8
0
10
26.93842
20
59.066235
30
-298.26285
11
52.520138
21
85.551674
31
-263.54767
0
LINE
8
0
10
52.520138
20
85.551674
30
-263.54767
11
44.532467
21
47.13694
31
-231.55295
0
LINE
8
0
10
44.532467
20
47.13694
30
-231.55295
11
18.464857
21
24.603678
31
-268.5962
0
LINE
8
0
10
18.464857
20
24.603678
30
-268.5962
11
24.523617
21
66.90211
31
-295.67953
0
LINE
8
0
10
24.523617
20
66.90211
30
-295.67953
11
44.959286
21
87.81427
31
-254.36545
0
LINE
8
0
10
44.959286
20
87.81427
30
-254.36545
11
35.114025
21
44.4296
31
-230.21838
0
LINE
8
0
10
35.114025
20
44.4296
30
-230.21838
11
14.078397
21
27.868883
31
-273.14658
0
LINE
8
0
10
14.078397
20
27.868883
30
-273.14658
11
20.992683
21
74.32206
31
-291.94724
0
LINE
8
0
10
20.992683
20
74.32206
30
-291.94724
11
36.316757
21
88.33744
31
-245.78177
0
LINE
8
0
10
36.316757
20
88.33744
30
-245.78177
11
26.293932
21
41.12457
31
-230.52919
0
LINE
8
0
10
26.293932
20
41.12457
30
-230.52919
11
10.047085
21
31.741268
31
-277.50946
0
LINE
8
0
10
10.047085
20
31.741268
30
-277.50946
11
16.22367
21
81.00899
31
-287.19714
0
LINE
8
0
10
16.22367
20
81.00899
30
-287.19714
11
26.94959
21
87.062645
31
-238.09322
0
LINE
8
0
10
26.94959
20
87.062645
30
-238.09322
11
18.29024
21
37.52619
31
-232.35892
0
LINE
8
0
10
18.29024
20
37.52619
30
-232.35892
11
6.125324
21
36.20096
31
-281.4468
0
LINE
8
0
10
6.125324
20
36.20096
30
-281.4468
11
10.178974
21
86.62655
31
-281.61923
0
LINE
8
0
10
10.178974
20
86.62655
30
-281.61923
11
17.250187
21
84.02053
31
-231.55226
0
LINE
8
0
10
17.250187
20
84.02053
30
-231.55226
11
11.224468
21
33.93212
31
-235.53018
0
LINE
8
0
10
11.224468
20
33.93212
30
-235.53018
11
2.0496671
21
41.138954
31
-284.7561
0
LINE
8
0
10
2.0496671
20
41.138954
30
-284.7561
11
2.9193199
21
90.85831
31
-275.4458
0
LINE
8
0
10
2.9193199
20
90.85831
30
-275.4458
11
7.620083
21
79.34707
31
-226.36617
0
LINE
8
0
10
7.620083
20
79.34707
30
-226.36617
11
5.125559
21
30.62587
31
-239.82596
0
LINE
8
0
10
5.125559
20
30.62587
30
-239.82596
11
-2.4368396
21
46.372482
31
-287.29733
0
LINE
8
0
10
-2.4368396
20
46.372482
30
-287.29733
11
-5.3985815
21
93.429436
31
-268.93353
0
LINE
8
0
10
-5.3985815
20
93.429436
30
-268.93353
11
-1.5572317
21
73.24919
31
-222.6633
0
LINE
8
0
10
-1.5572317
20
73.24919
30
-222.6633
11
-0.06656861
21
27.860226
31
-244.98715
0
LINE
8
0
10
-0.06656861
20
27.860226
30
-244.98715
11
-7.5589504
21
51.65934
31
-288.99207
0
LINE
8
0
10
-7.5589504
20
51.65934
30
-288.99207
11
-14.530561
21
94.121346
31
-262.36322
0
LINE
8
0
10
-14.530561
20
94.121346
30
-262.36322
11
-9.940573
21
66.00469
31
-220.51086
0
LINE
8
0
10
-9.940573
20
66.00469
30
-220.51086
11
-4.495862
21
25.816797
31
-250.76575
0
LINE
8
0
10
-4.495862
20
25.816797
30
-250.76575
11
-13.485847
21
56.69747
31
-289.81494
0
LINE
8
0
10
-13.485847
20
56.69747
30
-289.81494
11
-24.15856
21
92.80213
31
-256.00113
0
LINE
8
0
10
-24.15856
20
92.80213
30
-256.00113
11
-17.257757
21
57.968147
31
-219.91658
0
LINE
8
0
10
-17.257757
20
57.968147
30
-219.91658
11
-8.3687935
21
24.610332
31
-256.90717
0
LINE
8
0
10
-8.3687935
20
24.610332
30
-256.90717
11
-20.30825
21
61.138847
31
-289.79825
0
LINE
8
0
10
-20.30825
20
61.138847
30
-289.79825
11
-33.91255
21
89.43034
31
-250.0946
0
LINE
8
0
10
-33.91255
20
89.43034
30
-250.0946
11
-23.318695
21
49.511818
31
-220.82191
0
LINE
8
0
10
-23.318695
20
49.511818
30
-220.82191
11
-11.935266
21
24.268023
31
-263.16547
0
LINE
8
0
10
-11.935266
20
24.268023
30
-263.16547
11
-28.038015
21
64.6545
31
-289.0246
0
LINE
8
0
10
-28.038015
20
64.6545
30
-289.0246
11
-43.394073
21
84.067696
31
-244.8768
0
LINE
8
0
10
-43.394073
20
84.067696
30
-244.8768
11
-28.026407
21
41.017242
31
-223.11916
0
LINE
8
0
10
-28.026407
20
41.017242
30
-223.11916
11
-15.463112
21
24.72492
31
-269.33322
0
LINE
8
0
10
-15.463112
20
24.72492
30
-269.33322
11
-36.584415
21
66.90316
31
-287.61807
0
LINE
8
0
10
-36.584415
20
66.90316
30
-287.61807
11
-52.20555
21
76.8744
31
-240.51823
0
LINE
8
0
10
-52.20555
20
76.8744
30
-240.51823
11
-31.387012
21
32.860306
31
-226.65558
0
LINE
8
0
10
-31.387012
20
32.860306
30
-226.65558
11
-19.212713
21
25.83437
31
-275.24878
0
LINE
8
0
10
-19.212713
20
25.83437
30
-275.24878
11
-45.770973
21
67.6004
31
-285.7291
0
LINE
8
0
10
-45.770973
20
67.6004
30
-285.7291
11
-59.973644
21
68.0992
31
-237.14348
0
LINE
8
0
10
-59.973644
20
68.0992
30
-237.14348
11
-33.498512
21
25.365826
31
-231.2503
0
LINE
8
0
10
-33.498512
20
25.365826
30
-231.2503
11
-23.411854
21
27.371387
31
-280.78424
0
LINE
8
0
10
-23.411854
20
27.371387
30
-280.78424
11
-55.337086
21
66.52157
31
-283.52386
0
LINE
8
0
10
-55.337086
20
66.52157
30
-283.52386
11
-66.38005
21
58.08282
31
-234.84442
0
LINE
8
0
10
-66.38005
20
58.08282
30
-234.84442
11
-34.53412
21
18.789173
31
-236.71674
0
LINE
8
0
10
-34.53412
20
18.789173
30
-236.71674
11
-28.22734
21
29.040123
31
-285.84778
0
LINE
8
0
10
-28.22734
20
29.040123
30
-285.84778
11
-64.95763
21
63.526108
31
-281.1678
0
LINE
8
0
10
-64.95763
20
63.526108
30
-281.1678
11
-71.17926
21
47.21898
31
-233.64774
0
LINE
8
0
10
-71.17926
20
47.21898
30
-233.64774
11
-34.74659
21
13.319102
31
-242.84985
0
LINE
8
0
10
-34.74659
20
13.319102
30
-242.84985
11
-33.76117
21
30.522472
31
-290.4109
0
LINE
8
0
10
-33.76117
20
30.522472
30
-290.4109
11
-74.25133
21
58.565575
31
-278.8294
0
LINE
8
0
10
-74.25133
20
58.565575
30
-278.8294
11
-74.2144
21
35.93828
31
-233.53569
0
LINE
8
0
10
-74.2144
20
35.93828
30
-233.53569
11
-34.425014
21
9.041926
31
-249.46042
0
LINE
8
0
10
-34.425014
20
9.041926
30
-249.46042
11
-40.017345
21
31.464657
31
-294.4628
0
LINE
8
0
10
-40.017345
20
31.464657
30
-294.4628
11
-82.82924
21
51.70346
31
-276.64185
0
LINE
8
0
10
-82.82924
20
51.70346
30
-276.64185
11
-75.4361
21
24.69197
31
-234.457
0
LINE
8
0
10
-75.4361
20
24.69197
30
-234.457
11
-33.87162
21
5.9474916
31
-256.3858
0
LINE
8
0
10
-33.87162
20
5.9474916
30
-256.3858
11
-46.91491
21
31.533798
31
-298.03296
0
LINE
8
0
10
-46.91491
20
31.533798
30
-298.03296
11
-90.307556
21
43.101578
31
-274.70877
0
LINE
8
0
10
-90.307556
20
43.101578
30
-274.70877
11
-74.89195
21
13.906191
31
-236.3234
0
LINE
8
0
10
-74.89195
20
13.906191
30
-236.3234
11
-33.385723
21
3.9328647
31
-263.48178
0
LINE
8
0
10
-33.385723
20
3.9328647
30
-263.48178
11
-54.281315
21
30.429663
31
-301.16855
0
LINE
8
0
10
-54.281315
20
30.429663
30
-301.16855
11
-96.32602
21
33.023415
31
-273.12033
0
LINE
8
0
10
-96.32602
20
33.023415
30
-273.12033
11
-72.72954
21
3.968031
31
-239.02864
0
LINE
8
0
10
-72.72954
20
3.968031
30
-239.02864
11
-33.23409
21
2.8046231
31
-270.6246
0
LINE
8
0
10
-33.23409
20
2.8046231
30
-270.6246
11
-61.86772
21
27.912664
31
-303.927
0
LINE
8
0
10
-61.86772
20
27.912664
30
-303.927
11
-100.59215
21
21.815498
31
-271.91803
0
LINE
8
0
10
-100.59215
20
21.815498
30
-271.91803
11
-69.18646
21
-4.7998486
31
-242.45673
0
LINE
8
0
10
-69.18646
20
-4.7998486
30
-242.45673
11
-33.620758
21
2.300314
31
-277.73157
0
LINE
8
0
10
-33.620758
20
2.300314
30
-277.73157
11
-69.34479
21
23.817629
31
-306.366
0
LINE
8
0
10
-69.34479
20
23.817629
30
-306.366
11
-102.891815
21
9.887868
31
-271.1109
0
LINE
8
0
10
-102.891815
20
9.887868
30
-271.1109
11
-64.555176
21
-12.162779
31
-246.49243
0
LINE
8
0
10
-64.555176
20
-12.162779
30
-246.49243
11
-34.675694
21
2.10626
31
-284.74298
0
LINE
8
0
10
-34.675694
20
2.10626
30
-284.74298
11
-76.36499
21
18.081522
31
-308.53476
0
LINE
8
0
10
-76.36499
20
18.081522
30
-308.53476
11
-103.10741
21
-2.3015058
31
-270.6912
0
LINE
8
0
10
-103.10741
20
-2.3015058
30
-270.6912
11
-59.18026
21
-17.978539
31
-251.03113
0
LINE
8
0
10
-59.18026
20
-17.978539
30
-251.03113
11
-36.44075
21
1.8824284
31
-291.62112
0
LINE
8
0
10
-36.44075
20
1.8824284
30
-291.62112
11
-82.54747
21
10.738739
31
-310.4669
0
LINE
8
0
10
-82.54747
20
10.738739
30
-310.4669
11
-101.22749
21
-14.2864685
31
-270.61853
0
LINE
8
0
10
-101.22749
20
-14.2864685
30
-270.61853
11
-53.43234
21
-22.210258
31
-255.98038
0
LINE
8
0
10
-53.43234
20
-22.210258
30
-255.98038
11
-38.864628
21
1.2887301
31
-298.34314
0
LINE
8
0
10
-38.864628
20
1.2887301
30
-298.34314
11
-87.52574
21
1.9290915
31
-312.17566
0
LINE
8
0
10
-87.52574
20
1.9290915
30
-312.17566
11
-97.347305
21
-25.612133
31
-270.84326
0
LINE
8
0
10
-97.347305
20
-25.612133
30
-270.84326
11
-47.659447
21
-24.92392
31
-261.27032
0
LINE
8
0
10
-47.659447
20
-24.92392
30
-261.27032
11
-41.807957
21
0.012533188
31
-304.8962
0
LINE
8
0
10
-41.807957
20
0.012533188
30
-304.8962
11
-90.97104
21
-8.109443
31
-313.65234
0
LINE
8
0
10
-90.97104
20
-8.109443
30
-313.65234
11
-91.66579
21
-35.86287
31
-271.3148
0
LINE
8
0
10
-91.66579
20
-35.86287
30
-271.3148
11
-42.17733
21
-26.27932
31
-266.8511
0
LINE
8
0
10
-42.17733
20
-26.27932
30
-266.8511
11
-45.039684
21
-2.212677
31
-311.2535
0
LINE
8
0
10
-45.039684
20
-2.212677
30
-311.2535
11
-92.61961
21
-19.05597
31
-314.86453
0
LINE
8
0
10
-92.61961
20
-19.05597
30
-314.86453
11
-84.46112
21
-44.690796
31
-271.97818
0
LINE
8
0
10
-84.46112
20
-44.690796
30
-271.97818
11
-37.241863
21
-26.515907
31
-272.69196
0
LINE
8
0
10
-37.241863
20
-26.515907
30
-272.69196
11
-48.280293
21
-5.574706
31
-317.39752
0
LINE
8
0
10
-48.280293
20
-5.574706
30
-317.39752
11
-92.283615
21
-30.515327
31
-315.76962
0
LINE
8
0
10
-92.283615
20
-30.515327
30
-315.76962
11
-76.08368
21
-51.827625
31
-272.79846
0
LINE
8
0
10
-76.08368
20
-51.827625
30
-272.79846
11
-33.030388
21
-25.932816
31
-278.77664
0
LINE
8
0
10
-33.030388
20
-25.932816
30
-278.77664
11
-51.20036
21
-10.1797905
31
-323.2849
0
LINE
8
0
10
-51.20036
20
-10.1797905
30
-323.2849
11
-89.88284
21
-42.0559
31
-316.30734
0
LINE
8
0
10
-89.88284
20
-42.0559
30
-316.30734
11
-66.93579
21
-57.104416
31
-273.76358
0
LINE
8
0
10
-66.93579
20
-57.104416
30
-273.76358
11
-29.629438
21
-24.865036
31
-285.09723
0
LINE
8
0
10
-29.629438
20
-24.865036
30
-285.09723
11
-53.442
21
-16.032734
31
-328.8464
0
LINE
8
0
10
-53.442
20
-16.032734
30
-328.8464
11
-85.441315
21
-53.226673
31
-316.4164
0
LINE
8
0
10
-85.441315
20
-53.226673
30
-316.4164
11
-57.425533
21
-60.45762
31
-274.87665
0
LINE
8
0
10
-57.425533
20
-60.45762
30
-274.87665
11
-27.02948
21
-23.657495
31
-291.64594
0
LINE
8
0
10
-27.02948
20
-23.657495
30
-291.64594
11
-54.678883
21
-23.044714
31
-334.00452
0
LINE
8
0
10
-54.678883
20
-23.044714
30
-334.00452
11
-79.09146
21
-63.58458
31
-316.04526
0
LINE
8
0
10
-79.09146
20
-63.58458
30
-316.04526
11
-47.95236
21
-61.927963
31
-276.16696
0
LINE
8
0
10
-47.95236
20
-61.927963
30
-276.16696
11
-25.127565
21
-22.638706
31
-298.4066
0
LINE
8
0
10
-25.127565
20
-22.638706
30
-298.4066
11
-54.611095
21
-31.032057
31
-338.65332
0
LINE
8
0
10
-54.611095
20
-31.032057
30
-338.65332
11
-71.0665
21
-72.73051
31
-315.14685
0
LINE
8
0
10
-71.0665
20
-72.73051
30
-315.14685
11
-38.873707
21
-61.650494
31
-277.6847
0
LINE
8
0
10
-38.873707
20
-61.650494
30
-277.6847
11
-23.736885
21
-22.096554
31
-305.3464
0
LINE
8
0
10
-23.736885
20
-22.096554
30
-305.3464
11
-52.99572
21
-39.72062
31
-342.66937
0
LINE
8
0
10
-52.99572
20
-39.72062
30
-342.66937
11
-61.684864
21
-80.319664
31
-313.70456
0
LINE
8
0
10
-61.684864
20
-80.319664
30
-313.70456
11
-30.495264
21
-59.85668
31
-279.49936
0
LINE
8
0
10
-30.495264
20
-59.85668
30
-279.49936
11
-22.604794
21
-22.256355
31
-312.41272
0
LINE
8
0
10
-22.604794
20
-22.256355
30
-312.41272
11
-49.682575
21
-48.778717
31
-345.9234
0
LINE
8
0
10
-49.682575
20
-48.778717
30
-345.9234
11
-51.33575
21
-86.08559
31
-311.74045
0
LINE
8
0
10
-51.33575
20
-86.08559
30
-311.74045
11
-23.023764
21
-56.823982
31
-281.68607
0
LINE
8
0
10
-23.023764
20
-56.823982
30
-281.68607
11
-21.428179
21
-23.26857
31
-319.50772
0
LINE
8
0
10
-21.428179
20
-23.26857
30
-319.50772
11
-44.617573
21
-57.83281
31
-348.28357
0
LINE
8
0
10
-44.617573
20
-57.83281
30
-348.28357
11
-40.44635
21
-89.86101
31
-309.3005
0
LINE
8
0
10
-40.44635
20
-89.86101
30
-309.3005
11
-16.58257
21
-52.88435
31
-284.32257
0
LINE
8
0
10
-16.58257
20
-52.88435
30
-284.32257
11
-19.892097
21
-25.19141
31
-326.52588
0
LINE
8
0
10
-19.892097
20
-25.19141
30
-326.52588
11
-37.847572
21
-66.474655
31
-349.6303
0
LINE
8
0
10
-37.847572
20
-66.474655
30
-349.6303
11
-29.458284
21
-91.5781
31
-306.4715
0
LINE
8
0
10
-29.458284
20
-91.5781
30
-306.4715
11
-11.192604
21
-48.38329
31
-287.47586
0
LINE
8
0
10
-11.192604
20
-48.38329
30
-287.47586
11
-17.685537
21
-27.996613
31
-333.31793
0
LINE
8
0
10
-17.685537
20
-27.996613
30
-333.31793
11
-29.533213
21
-74.32379
31
-349.86276
0
LINE
8
0
10
-29.533213
20
-74.32379
30
-349.86276
11
-18.796421
21
-91.268814
31
-303.3721
0
LINE
8
0
10
-18.796421
20
-91.268814
30
-303.3721
11
-6.7770977
21
-43.65781
31
-291.19223
0
LINE
8
0
10
-6.7770977
20
-43.65781
30
-291.19223
11
-14.529733
21
-31.5639
31
-339.69913
0
LINE
8
0
10
-14.529733
20
-31.5639
30
-339.69913
11
-19.928904
21
-81.032
31
-348.90707
0
LINE
8
0
10
-19.928904
20
-81.032
30
-348.90707
11
-8.84717
21
-89.06505
31
-300.16287
0
LINE
8
0
10
-8.84717
20
-89.06505
30
-300.16287
11
-3.1719987
21
-39.009148
31
-295.49
0
LINE
8
0
10
-3.1719987
20
-39.009148
30
-295.49
11
-10.209961
21
-35.699043
31
-345.47537
0
LINE
8
0
10
-10.209961
20
-35.699043
30
-345.47537
11
-9.373855
21
-86.2873
31
-346.74088
0
LINE
8
0
10
-9.373855
20
-86.2873
30
-346.74088
11
0.074352264
21
-85.17984
31
-297.01883
0
LINE
8
0
10
0.074352264
20
-85.17984
30
-297.01883
11
-0.14175332
21
-34.695904
31
-300.34097
0
LINE
8
0
10
-0.14175332
20
-34.695904
30
-300.34097
11
-4.5902157
21
-40.145878
31
-350.43695
0
LINE
8
0
10
-4.5902157
20
-40.145878
30
-350.43695
11
1.7292469
21
-89.86728
31
-343.38293
0
LINE
8
0
10
1.7292469
20
-89.86728
30
-343.38293
11
7.7398057
21
-79.88224
31
-294.1223
0
LINE
8
0
10
7.7398057
20
-79.88224
30
-294.1223
11
2.5986128
21
-30.899292
31
-305.67578
0
LINE
8
0
10
2.5986128
20
-30.899292
30
-305.67578
11
2.3702955
21
-44.607384
31
-354.37427
0
LINE
8
0
10
2.3702955
20
-44.607384
30
-354.37427
11
12.940102
21
-91.63257
31
-338.90704
0
LINE
8
0
10
12.940102
20
-91.63257
30
-338.90704
11
14.016689
21
-73.49183
31
-291.66525
0
LINE
8
0
10
14.016689
20
-73.49183
30
-291.66525
11
5.355381
21
-27.717058
31
-311.39023
0
LINE
8
0
10
5.355381
20
-27.717058
30
-311.39023
11
10.610262
21
-48.768856
31
-357.09106
0
LINE
8
0
10
10.610262
20
-48.768856
30
-357.09106
11
23.809523
21
-91.53864
31
-333.4371
0
LINE
8
0
10
23.809523
20
-91.53864
30
-333.4371
11
18.87798
21
-66.34365
31
-289.823
0
LINE
8
0
10
18.87798
20
-66.34365
30
-289.823
11
8.433598
21
-25.17772
31
-317.3116
0
LINE
8
0
10
8.433598
20
-25.17772
30
-317.3116
11
19.965853
21
-52.322124
31
-358.41824
0
LINE
8
0
10
19.965853
20
-52.322124
30
-358.41824
11
33.906017
21
-89.6305
31
-327.16083
0
LINE
8
0
10
33.906017
20
-89.6305
30
-327.16083
11
22.396618
21
-58.76257
31
-288.74393
0
LINE
8
0
10
22.396618
20
-58.76257
30
-288.74393
11
12.105171
21
-23.222462
31
-323.24005
0
LINE
8
0
10
12.105171
20
-23.222462
30
-323.24005
11
30.178558
21
-54.988903
31
-358.2269
0
LINE
8
0
10
30.178558
20
-54.988903
30
-358.2269
11
42.84781
21
-86.04484
31
-320.30356
0
LINE
8
0
10
42.84781
20
-86.04484
30
-320.30356
11
24.74116
21
-51.056873
31
-288.53857
0
LINE
8
0
10
24.74116
20
-51.056873
30
-288.53857
11
16.586666
21
-21.725254
31
-328.93823
0
LINE
8
0
10
16.586666
20
-21.725254
30
-328.93823
11
40.910034
21
-56.541637
31
-356.4401
0
LINE
8
0
10
40.910034
20
-56.541637
30
-356.4401
11
50.32266
21
-80.99073
31
-313.117
0
LINE
8
0
10
50.32266
20
-80.99073
30
-313.117
11
26.151438
21
-43.4744
31
-289.26532
0
LINE
8
0
10
26.151438
20
-43.4744
30
-289.26532
11
22.018145
21
-20.505686
31
-334.1465
0
LINE
8
0
10
22.018145
20
-20.505686
30
-334.1465
11
51.762997
21
-56.820156
31
-353.04196
0
LINE
8
0
10
51.762997
20
-56.820156
30
-353.04196
11
56.108948
21
-74.73295
31
-305.8884
0
LINE
8
0
10
56.108948
20
-74.73295
30
-305.8884
11
26.921114
21
-36.204155
31
-290.9258
0
LINE
8
0
10
26.921114
20
-36.204155
30
-290.9258
11
28.449123
21
-19.347794
31
-338.59668
0
LINE
8
0
10
28.449123
20
-19.347794
30
-338.59668
11
62.30862
21
-55.745968
31
-348.08127
0
LINE
8
0
10
62.30862
20
-55.745968
30
-348.08127
11
60.087574
21
-67.57211
31
-298.9083
0
LINE
8
0
10
60.087574
20
-67.57211
30
-298.9083
11
27.370874
21
-29.363277
31
-293.45993
0
LINE
8
0
10
27.370874
20
-29.363277
30
-293.45993
11
35.830746
21
-18.021704
31
-342.0276
0
LINE
8
0
10
35.830746
20
-18.021704
30
-342.0276
11
72.10664
21
-53.31521
31
-341.6824
0
LINE
8
0
10
72.10664
20
-53.31521
30
-341.6824
11
62.244164
21
-59.8194
31
-292.45584
0
LINE
8
0
10
62.244164
20
-59.8194
30
-292.45584
11
27.820906
21
-22.994318
31
-296.74545
0
LINE
8
0
10
27.820906
20
-22.994318
30
-296.74545
11
44.015987
21
-16.305977
31
-344.20142
0
LINE
8
0
10
44.015987
20
-16.305977
30
-344.20142
11
80.74533
21
-49.613888
31
-334.03412
0
LINE
8
0
10
80.74533
20
-49.613888
30
-334.03412
11
62.676777
21
-51.78073
31
-286.79398
0
LINE
8
0
10
62.676777
20
-51.78073
30
-286.79398
11
28.563873
21
-17.068853
31
-300.60214
0
LINE
8
0
10
28.563873
20
-17.068853
30
-300.60214
11
52.767303
21
-14.009014
31
-344.91934
0
LINE
8
0
10
52.767303
20
-14.009014
30
-344.91934
11
87.86505
21
-44.806927
31
-325.3773
0
LINE
8
0
10
87.86505
20
-44.806927
30
-325.3773
11
61.57071
21
-43.72519
31
-282.1356
0
LINE
8
0
10
61.57071
20
-43.72519
30
-282.1356
11
29.840054
21
-11.497278
31
-304.79987
0
LINE
8
0
10
29.840054
20
-11.497278
30
-304.79987
11
61.771343
21
-10.987732
31
-344.03583
0
LINE
8
0
10
61.771343
20
-10.987732
30
-344.03583
11
93.17619
21
-39.113205
31
-316.01227
0
LINE
8
0
10
93.17619
20
-39.113205
30
-316.01227
11
59.18707
21
-35.87197
31
-278.64236
0
LINE
8
0
10
59.18707
20
-35.87197
30
-278.64236
11
31.817291
21
-6.143164
31
-309.07013
0
LINE
8
0
10
31.817291
20
-6.143164
30
-309.07013
11
70.663574
21
-7.163725
31
-341.46997
0
LINE
8
0
10
70.663574
20
-7.163725
30
-341.46997
11
96.483185
21
-32.79817
31
-306.27264
0
LINE
8
0
10
96.483185
20
-32.79817
30
-306.27264
11
55.857254
21
-28.385405
31
-276.41306
0
LINE
8
0
10
55.857254
20
-28.385405
30
-276.41306
11
34.57634
21
-0.84188366
31
-313.1211
0
LINE
8
0
10
34.57634
20
-0.84188366
30
-313.1211
11
79.03757
21
-2.5256872
31
-337.2135
0
LINE
8
0
10
79.03757
20
-2.5256872
30
-337.2135
11
97.693085
21
-26.151405
31
-296.5081
0
LINE
8
0
10
97.693085
20
-26.151405
30
-296.5081
11
51.922863
21
-21.349934
31
-275.47162
0
LINE
8
0
10
51.922863
20
-21.349934
30
-275.47162
11
38.103428
21
4.5787706
31
-316.65414
0
LINE
8
0
10
38.103428
20
4.5787706
30
-316.65414
11
86.49263
21
2.8587627
31
-331.33826
0
LINE
8
0
10
86.49263
20
2.8587627
30
-331.33826
11
96.82599
21
-19.459593
31
-287.08163
0
LINE
8
0
10
96.82599
20
-19.459593
30
-287.08163
11
47.727543
21
-14.779738
31
-275.77518
0
LINE
8
0
10
47.727543
20
-14.779738
30
-275.77518
11
42.29026
21
10.27744
31
-319.38184
0
LINE
8
0
10
42.29026
20
10.27744
30
-319.38184
11
92.66411
21
8.845108
31
-323.98492
0
LINE
8
0
10
92.66411
20
8.845108
30
-323.98492
11
94.00377
21
-12.991836
31
-278.32773
0
LINE
8
0
10
94.00377
20
-12.991836
30
-278.32773
11
43.607822
21
-8.631306
31
-277.2012
0
LINE
8
0
10
43.607822
20
-8.631306
30
-277.2012
11
46.944836
21
16.380695
31
-321.04797
0
LINE
8
0
10
46.944836
20
16.380695
30
-321.04797
11
97.21542
21
15.236726
31
-315.37933
0
LINE
8
0
10
97.21542
20
15.236726
30
-315.37933
11
89.44029
21
-6.975934
31
-270.54803
0
LINE
8
0
10
89.44029
20
-6.975934
30
-270.54803
11
39.835533
21
-2.7986736
31
-279.56744
0
LINE
8
0
10
39.835533
20
-2.7986736
30
-279.56744
11
51.793163
21
22.960728
31
-321.43362
0
LINE
8
0
10
51.793163
20
22.960728
30
-321.43362
11
99.9077
21
21.778086
31
-305.79373
0
LINE
8
0
10
99.9077
20
21.778086
30
-305.79373
11
83.44061
21
-1.5777998
31
-264.00238
0
LINE
8
0
10
83.44061
20
-1.5777998
30
-264.00238
11
36.615932
21
2.8622813
31
-282.63626
0
LINE
8
0
10
36.615932
20
2.8622813
30
-282.63626
11
56.513905
21
30.02938
31
-320.3866
0
LINE
8
0
10
56.513905
20
30.02938
30
-320.3866
11
100.58292
21
28.187958
31
-295.55542
0
LINE
8
0
10
100.58292
20
28.187958
30
-295.55542
11
76.34732
21
3.0997028
31
-258.87463
0
LINE
8
0
10
76.34732
20
3.0997028
30
-258.87463
11
34.068756
21
8.518654
31
-286.13364
0
LINE
8
0
10
34.068756
20
8.518654
30
-286.13364
11
60.76697
21
37.53114
31
-317.825
0
LINE
8
0
10
60.76697
20
37.53114
30
-317.825
11
99.18518
21
34.179905
31
-285.03336
0
LINE
8
0
10
99.18518
20
34.179905
30
-285.03336
11
99.18492
21
34.18089
31
-285.0353
0
ENDSEC
0
EOF
